<?xml version="1.0" encoding="UTF-8" standalone="no"?>
<!-- Created with Inkscape (http://www.inkscape.org/) -->

<svg
   width="850mm"
   height="256mm"
   viewBox="0 0 850 256"
   version="1.1"
   id="svg5"
   inkscape:version="1.1 (c4e8f9e, 2021-05-24)"
   sodipodi:docname="logo-yapps.svg"
   xmlns:inkscape="http://www.inkscape.org/namespaces/inkscape"
   xmlns:sodipodi="http://sodipodi.sourceforge.net/DTD/sodipodi-0.dtd"
   xmlns="http://www.w3.org/2000/svg"
   xmlns:svg="http://www.w3.org/2000/svg">
  <sodipodi:namedview
     id="namedview7"
     pagecolor="#4b4b4b"
     bordercolor="#666666"
     borderopacity="1.0"
     inkscape:pageshadow="2"
     inkscape:pageopacity="0"
     inkscape:pagecheckerboard="0"
     inkscape:document-units="mm"
     showgrid="true"
     width="256mm"
     inkscape:zoom="0.19042688"
     inkscape:cx="1142.1707"
     inkscape:cy="488.37642"
     inkscape:window-width="1680"
     inkscape:window-height="936"
     inkscape:window-x="0"
     inkscape:window-y="25"
     inkscape:window-maximized="0"
     inkscape:current-layer="text1521">
    <inkscape:grid
       type="xygrid"
       id="grid33" />
  </sodipodi:namedview>
  <defs
     id="defs2" />
  <g
     inkscape:label="レイヤー 1"
     inkscape:groupmode="layer"
     id="layer1">
    <rect
       style="fill:#ffffff;fill-opacity:0.8;fill-rule:evenodd;stroke-width:0.211122"
       id="rect31"
       width="52.916668"
       height="52.916668"
       x="26.458334"
       y="26.458338" />
    <rect
       style="fill:#ffffff;fill-opacity:0.8;fill-rule:evenodd;stroke-width:0.211122"
       id="rect31-67"
       width="52.916668"
       height="52.916668"
       x="102.12916"
       y="102.129" />
    <rect
       style="fill:#ffffff;fill-opacity:0.5;fill-rule:evenodd;stroke-width:0.211122"
       id="rect31-6"
       width="52.916668"
       height="52.916668"
       x="26.458324"
       y="102.12918" />
    <rect
       style="fill:#ffffff;fill-opacity:0.5;fill-rule:evenodd;stroke-width:0.211122"
       id="rect31-6-1"
       width="52.916668"
       height="52.916668"
       x="102.129"
       y="175.683" />
    <rect
       style="fill:#ffffff;fill-opacity:0.5;fill-rule:evenodd;stroke-width:0.211122"
       id="rect31-6-1-7"
       width="52.916668"
       height="52.916668"
       x="177.271"
       y="175.683" />
    <rect
       style="fill:#ffffff;fill-opacity:0.5;fill-rule:evenodd;stroke-width:0.211122"
       id="rect31-5"
       width="52.916668"
       height="52.916668"
       x="102.12915"
       y="26.458" />
    <rect
       style="fill:#ffffff;fill-opacity:0.8;fill-rule:evenodd;stroke-width:0.211122"
       id="rect31-9"
       width="52.916668"
       height="52.916668"
       x="177.27072"
       y="26.458" />
    <rect
       style="fill:#ffffff;fill-opacity:0.8;fill-rule:evenodd;stroke-width:0.211122"
       id="rect31-3"
       width="52.916668"
       height="52.916668"
       x="26.458"
       y="175.68275" />
    <rect
       style="fill:#ffffff;fill-opacity:0.5;fill-rule:evenodd;stroke-width:0.211122"
       id="rect31-6-1-2"
       width="52.916668"
       height="52.916668"
       x="177.271"
       y="102.129" />
    <g
       aria-label="Yapps"
       id="text1521"
       style="font-size:176.389px;line-height:1.25;font-family:'03SmartFontUI';-inkscape-font-specification:'03SmartFontUI';fill:#ffffff;stroke-width:0.264583">
      <path
         d="M 347.59795,195.43524 V 139.69631 L 394.16464,61.026817 H 377.93685 L 340.71877,128.05464 302.61875,61.026817 h -16.22779 l 46.91948,78.669493 v 55.73893 z"
         id="path15091" />
      <path
         d="m 451.17412,91.365726 h -35.45419 v 11.112504 h 34.92502 c 11.46529,0 23.81252,2.46945 23.81252,16.0514 v 12.70001 c -6.5264,-0.17639 -13.93473,-0.35278 -21.51946,-0.35278 -7.58473,0 -15.16946,0.70556 -22.04863,2.46945 -13.75834,3.70417 -24.16529,12.34723 -24.16529,32.27919 0,21.87224 14.11112,29.98613 33.6903,29.98613 13.58195,0 25.92918,-3.52778 34.39586,-14.11112 l 0.70555,13.93473 h 12.34723 v -77.082 c 0,-21.872232 -17.99168,-26.987514 -36.68891,-26.987514 z m -0.17639,50.094474 h 23.45974 v 29.45697 c -7.93751,8.99584 -19.40279,13.40556 -31.22086,13.40556 -12.70001,0 -22.22501,-4.40972 -22.22501,-19.40279 0,-19.93196 13.58195,-23.45974 29.98613,-23.45974 z"
         id="path15093" />
      <path
         d="m 561.9106,91.365726 h -8.99584 c -23.81252,0 -35.80697,9.348614 -35.80697,28.045854 v 106.89174 h 13.93473 v -30.86808 h 30.86808 c 23.45973,0 35.98335,-9.70139 35.98335,-28.39863 v -47.62503 c 0,-18.69724 -12.17084,-28.045854 -35.98335,-28.045854 z m 21.69584,29.809744 v 44.62642 c 0,15.87501 -10.05417,18.34445 -21.51945,18.34445 h -31.22086 v -62.97087 c 0,-16.40418 8.99584,-17.99168 22.04863,-17.99168 h 8.99584 c 13.05278,0 21.69584,1.5875 21.69584,17.99168 z"
         id="path15095" />
      <path
         d="m 668.01961,91.365726 h -8.99584 c -23.81252,0 -35.80697,9.348614 -35.80697,28.045854 v 106.89174 h 13.93473 v -30.86808 h 30.86808 c 23.45973,0 35.98335,-9.70139 35.98335,-28.39863 v -47.62503 c 0,-18.69724 -12.17084,-28.045854 -35.98335,-28.045854 z m 21.69584,29.809744 v 44.62642 c 0,15.87501 -10.05417,18.34445 -21.51946,18.34445 h -31.22085 v -62.97087 c 0,-16.40418 8.99584,-17.99168 22.04863,-17.99168 h 8.99584 c 13.05278,0 21.69584,1.5875 21.69584,17.99168 z"
         id="path15097" />
      <path
         d="m 761.95777,103.18379 h 33.6903 V 91.365726 h -36.68891 c -18.87362,0 -35.63058,5.644449 -35.63058,27.516684 0,21.87224 16.40418,26.28196 32.80836,29.10419 4.05694,0.70555 8.11389,1.23472 11.99445,1.94028 3.88056,0.88194 7.40834,1.76389 10.58334,2.99861 5.99722,2.46945 10.23056,6.70278 10.23056,14.28751 0,14.81668 -14.99306,16.22779 -26.28196,16.22779 h -36.68891 v 11.99445 h 37.39447 c 20.28473,0 39.33474,-4.05695 39.33474,-28.57502 0,-20.8139 -16.40417,-25.40002 -32.63196,-28.57502 -4.05695,-0.88194 -8.29029,-1.5875 -11.99446,-2.29305 -3.88055,-0.88195 -7.40833,-1.94028 -10.40695,-3.17501 -6.17361,-2.82222 -10.05417,-6.87917 -10.05417,-14.28751 0,-14.81667 12.8764,-15.34584 24.34168,-15.34584 z"
         id="path15099" />
    </g>
  </g>
</svg>
