<!--?xml version="1.0" encoding="utf-8"?-->
<!-- Generator: Adobe Illustrator 18.1.1, SVG Export Plug-In . SVG Version: 6.00 Build 0)  -->

<svg version="1.1" id="_x32_" xmlns="http://www.w3.org/2000/svg" xmlns:xlink="http://www.w3.org/1999/xlink" x="0px" y="0px" viewBox="0 0 512 512" style="width: 64px; height: 64px; opacity: 1;" xml:space="preserve">
<style type="text/css">
	.st0{fill:#4B4B4B;}
</style>
<g>
	<path class="st0" d="M502.65,394.055c-1.581-3.012-2.922-6.18-3.798-9.129c-0.884-2.942-1.293-5.646-1.289-7.849
		c0-10.191,0-62.152,0-98.828c0.015-12.047-2.52-23.551-7.372-33.632c-3.618-7.565-8.497-14.272-14.182-19.919
		c-8.544-8.484-18.813-14.547-29.7-18.479c-10.906-3.932-22.486-5.788-34.218-5.788c-2.319,0-4.643,0.079-6.963,0.22
		c-6.378,0.409-12.283,1.644-17.827,3.232c-8.304,2.406-15.848,5.638-22.643,8.886c-6.774,3.255-12.802,6.558-17.563,9.113
		l23.378,43.438c6.57-3.546,13.824-7.486,20.763-10.474c3.448-1.486,6.782-2.721,9.723-3.57c2.945-0.857,5.485-1.297,7.254-1.4
		c1.313-0.087,2.606-0.126,3.876-0.126c5.764,0,11.162,0.834,15.774,2.28c3.468,1.094,6.492,2.516,9.004,4.144
		c3.774,2.477,6.39,5.269,8.257,8.61c1.832,3.366,3.082,7.455,3.114,13.462c0,1.18,0,2.375,0,3.586c-9.354,0-20.079,0-28.128,0
		c-25.926,0-48.891,7.392-65.947,21.161c-8.508,6.865-15.475,15.341-20.256,24.998c-4.797,9.641-7.352,20.445-7.34,31.509
		c-0.012,10.734,2.21,21.028,6.381,30.173c6.24,13.761,16.777,24.73,29.362,31.957c12.602,7.258,27.243,10.946,42.498,10.954
		c10.746-0.008,21.22-2.147,30.991-5.889c7.856-3.02,15.267-7.093,22.029-12.071c1.726,3.483,3.523,6.739,5.32,9.664
		c4.234,6.872,8.37,12.157,11.402,15.703l37.45-32.09C509.916,405.497,505.776,400.087,502.65,394.055z M448.239,360.203
		c-0.539,2.242-1.376,4.474-2.56,6.732c-3.283,6.306-9.408,12.59-16.957,17.009c-7.522,4.458-16.274,6.943-23.914,6.912
		c-11.374,0-20.724-3.696-26.822-9.059c-3.074-2.698-5.406-5.803-7.05-9.405c-1.635-3.617-2.626-7.785-2.638-12.888
		c0.011-4.772,1.038-8.996,2.995-12.966c2.953-5.93,8.15-11.466,16.258-15.774c8.076-4.285,19.03-7.195,32.558-7.187
		c8.049,0,18.774,0,28.128,0C448.239,337.305,448.239,350.279,448.239,360.203z" style="fill: rgb(255, 255, 255);"></path>
	<path class="st0" d="M183.798,72.006H145.29c-15.598,0-29.331,9.956-34.179,24.778L0,436.275h58.76l35.166-107.478H202.52
		l27.365,107.478h74.585L218.648,99.088C214.591,83.141,200.26,72.006,183.798,72.006z M108.127,285.421l40.497-123.763h11.356
		l31.505,123.763H108.127z" style="fill: rgb(255, 255, 255);"></path>
</g>
</svg>
