<!--?xml version="1.0" encoding="utf-8"?-->
<!-- Generator: Adobe Illustrator 18.1.1, SVG Export Plug-In . SVG Version: 6.00 Build 0)  -->

<svg version="1.1" id="_x32_" xmlns="http://www.w3.org/2000/svg" xmlns:xlink="http://www.w3.org/1999/xlink" x="0px" y="0px" viewBox="0 0 512 512" style="width: 64px; height: 64px; opacity: 1;" xml:space="preserve">
<style type="text/css">
	.st0{fill:#4B4B4B;}
</style>
<g>
	<path class="st0" d="M426.78,407.978c-10.391-17.733-26.469-28.396-41.942-35.512c-15.48-7.109-30.794-10.948-40.009-14.43
		c-7.288-2.71-15.254-6.95-20.928-11.52c-2.837-2.272-5.083-4.624-6.445-6.671c-1.388-2.073-1.82-3.661-1.814-4.73
		c0-7.334,0-10.644,0-21.792c9.766-10.87,23.798-27.712,29.565-54.413c2.013-0.91,4.006-1.934,5.926-3.268
		c4.777-3.296,8.83-8.093,12.264-14.597c3.455-6.537,6.518-14.902,9.786-26.33c1.654-5.806,2.418-10.842,2.418-15.32
		c0-2.272-0.233-4.378-0.631-6.371C443.476,104.805,340.729-10.804,264.73,2.709c-59.529-15.307-113.225,37.212-134.366,83.34
		c-17.154,37.432-11.394,89.055,6.724,106.568c-0.445,2.106-0.698,4.358-0.698,6.777c0.007,4.491,0.771,9.528,2.425,15.32
		c4.372,15.228,8.318,25.061,13.427,32.276c2.551,3.58,5.462,6.458,8.624,8.65c1.92,1.335,3.913,2.358,5.926,3.268
		c5.767,26.702,19.799,43.544,29.565,54.413c0,11.135,0,14.457,0,21.792c0.02,0.91-0.439,2.592-1.953,4.75
		c-2.206,3.236-6.544,7.102-11.574,10.371c-5.016,3.289-10.729,6.073-15.52,7.76c-6.232,2.192-15.188,4.651-25.001,8.112
		c-14.716,5.215-31.592,12.73-45.105,26.216c-13.547,13.441-23.167,33.146-23.081,60.173c0,3.442,0.146,7.003,0.452,10.697
		c0.206,2.299,1.016,4.205,1.994,5.833c1.867,3.03,4.398,5.375,7.574,7.767c5.554,4.125,13.274,8.172,23.293,12.178
		C137.44,500.892,188.18,511.98,256,512c55.104,0,98.974-7.361,129.542-16.484c15.294-4.577,27.246-9.56,35.83-14.503
		c4.305-2.498,7.767-4.95,10.504-7.614c1.368-1.342,2.564-2.751,3.554-4.372c0.977-1.628,1.787-3.534,1.986-5.833
		c0.312-3.694,0.459-7.242,0.459-10.67C437.889,434.512,433.703,419.764,426.78,407.978z M320.339,362.38
		c0.339,0.226,0.718,0.385,1.063,0.611l-26.117,63.821l-31.492-39.371l45.883-33.718
		C312.812,356.926,316.419,359.803,320.339,362.38z M180.586,252.179l-0.757-4.286l-4.092-1.462c-2.605-0.93-4.591-1.88-6.325-3.082
		c-2.558-1.807-4.877-4.272-7.588-9.328c-2.677-5.023-5.514-12.524-8.617-23.413c-1.362-4.764-1.847-8.464-1.847-11.215
		c0.007-3.189,0.618-5.063,1.243-6.238c0.943-1.714,2.099-2.445,3.574-3.036c1.01-0.385,2.079-0.531,2.684-0.584l3.482,0.744
		l8.843,26.735l5.102-23.812l26.19-37.418c0,0-1.701,18.709-6.803,34.016c50.055-16.197,63.13-34.906,65.748-39.657l-16.424,32.854
		c0,0,57.15-17.008,67.355-40.82l-11.055,36.568c0,0,30.615-8.504,35.717-22.111c2.93-7.806,3.335,2.578,3.149,12.856l-0.598-0.1
		v47.623l12.657-27.425l0.538-0.06c0.472-0.02,2.864,0.219,4.438,1.269c0.857,0.545,1.555,1.182,2.192,2.359
		c0.631,1.176,1.236,3.042,1.249,6.238c0,2.751-0.485,6.444-1.847,11.215c-4.126,14.536-7.827,22.988-11.222,27.678
		c-1.701,2.365-3.256,3.854-4.983,5.062c-1.734,1.203-3.721,2.152-6.325,3.082l-4.092,1.462l-0.758,4.286
		c-4.79,26.821-18.609,41.902-28.814,53.27l-1.92,2.133v2.877c0,13.6,0,16.709,0,24.655c0.007,3.588,0.997,6.897,2.492,9.873
		L256,379.655l-47.244-34.721c1.514-2.95,2.551-6.206,2.564-9.82c0-7.946,0-11.048,0-24.655v-2.877l-1.92-2.133
		C199.195,294.082,185.376,279,180.586,252.179z M196.916,358.514c1.9-1.514,3.701-3.122,5.362-4.823l45.929,33.751l-31.492,39.371
		l-26.11-63.808C192.784,361.597,194.91,360.108,196.916,358.514z M422.522,461.413c-0.319,0.506-1.496,1.828-3.555,3.336
		c-3.9,2.936-10.676,6.63-19.858,10.284C371.49,486.062,322.193,497.051,256,497.038c-53.749,0-96.322-7.216-125.256-15.866
		c-14.451-4.305-25.512-9.009-32.635-13.128c-3.561-2.046-6.119-3.96-7.521-5.342c-0.618-0.598-0.956-1.056-1.116-1.302
		c-0.246-3.082-0.386-6.072-0.386-8.903c0.021-15.759,3.548-27.632,9.03-37.072c8.212-14.125,21.266-23.167,35.232-29.605
		c13.952-6.444,28.383-10.019,38.933-13.713c2.837-1.01,5.794-2.319,8.756-3.76l32.608,79.726L256,395.121l42.355,52.952
		l32.628-79.766c2.863,1.388,5.754,2.684,8.597,3.747c7.082,2.644,15.793,5.089,25.028,8.384
		c13.84,4.917,28.595,11.706,39.564,22.642c10.929,10.99,18.649,25.832,18.736,49.444
		C422.907,455.354,422.774,458.324,422.522,461.413z" style="fill: rgb(255, 255, 255);"></path>
	<circle class="st0" cx="255.788" cy="475.286" r="6.378" style="fill: rgb(255, 255, 255);"></circle>
	<circle class="st0" cx="256.213" cy="435.742" r="6.378" style="fill: rgb(255, 255, 255);"></circle>
</g>
</svg>
