<?xml version="1.0" encoding="UTF-8" standalone="no"?>
<!-- Created with Inkscape (http://www.inkscape.org/) -->

<svg
   width="106.82925mm"
   height="18.777077mm"
   viewBox="0 0 106.82925 18.777077"
   version="1.1"
   id="svg5"
   inkscape:version="1.1 (c4e8f9e, 2021-05-24)"
   sodipodi:docname="logo.svg"
   xmlns:inkscape="http://www.inkscape.org/namespaces/inkscape"
   xmlns:sodipodi="http://sodipodi.sourceforge.net/DTD/sodipodi-0.dtd"
   xmlns="http://www.w3.org/2000/svg"
   xmlns:svg="http://www.w3.org/2000/svg">
  <sodipodi:namedview
     id="namedview7"
     pagecolor="#ffffff"
     bordercolor="#666666"
     borderopacity="1.0"
     inkscape:pageshadow="2"
     inkscape:pageopacity="0.0"
     inkscape:pagecheckerboard="0"
     inkscape:document-units="mm"
     showgrid="false"
     inkscape:zoom="1.6562546"
     inkscape:cx="196.52776"
     inkscape:cy="67.320569"
     inkscape:window-width="1680"
     inkscape:window-height="937"
     inkscape:window-x="0"
     inkscape:window-y="25"
     inkscape:window-maximized="1"
     inkscape:current-layer="layer1" />
  <defs
     id="defs2">
    <rect
       x="39.987129"
       y="87.083076"
       width="531.38452"
       height="79.974258"
       id="rect62512" />
    <rect
       x="38.209923"
       y="80.862862"
       width="223.03932"
       height="56.870583"
       id="rect40974" />
    <rect
       x="16.465288"
       y="21.953716"
       width="306.25436"
       height="61.470409"
       id="rect18077" />
    <rect
       x="35.078739"
       y="29.682011"
       width="623.3222"
       height="164.60023"
       id="rect3135" />
    <rect
       x="35.078739"
       y="29.682011"
       width="623.3222"
       height="164.60023"
       id="rect3135-6" />
    <rect
       x="39.987129"
       y="87.083076"
       width="531.38452"
       height="79.974258"
       id="rect62512-9" />
  </defs>
  <g
     inkscape:label="Layer 1"
     inkscape:groupmode="layer"
     id="layer1"
     transform="translate(-8.7139879,-7.3620148)">
    <g
       aria-label="サンタ狩りへ"
       transform="scale(0.26458333)"
       id="text3133"
       style="font-size:40px;line-height:1.25;font-family:Togalite;-inkscape-font-specification:Togalite;white-space:pre;shape-inside:url(#rect3135);fill:#4d4d4d">
      <path
         d="m 42.758125,63.481641 c 2.52,1.64 4,7.28 2.36,9.6 l 0.16,0.12 c 0.52,-0.8 2.52,-1.84 3.8,-2 12.6,-1.6 17.6,-7.04 17.6,-18.52 v -2 h 3 c 1.4,0 3.68,0.8 4.44,1.56 l 0.12,-0.12 c -0.76,-0.76 -1.56,-3.04 -1.56,-4.44 0,-2.24 0.64,-4.32 1.56,-5.24 l -0.12,-0.12 c -0.76,0.76 -3.04,1.56 -4.44,1.56 h -3 v -3.2 c 0,-1.52 0.84,-3.96 1.64,-4.76 l -0.08,-0.08 c -2.16,2.16 -8.76,2.16 -10.92,0 l -0.08,0.08 c 0.8,0.8 1.64,3.24 1.64,4.76 v 3.2 h -8 v -3.2 c 0,-1.52 0.84,-3.96 1.64,-4.76 l -0.08,-0.08 c -2.16,2.16 -8.4,2.12 -10.52,0 l -0.08,0.08 c 0.8,0.8 1.64,3.24 1.64,4.76 v 3.2 h -3 c -1.4,0 -3.68,-0.8 -4.44,-1.56 l -0.12,0.12 c 0.88,0.88 1.56,2.92 1.56,5.24 0,1.4 -0.8,3.68 -1.56,4.44 l 0.12,0.12 c 0.76,-0.76 3.04,-1.56 4.44,-1.56 h 3 v 4 c 0,1.52 -0.84,3.96 -1.64,4.76 l 0.08,0.08 c 0.8,-0.8 3.24,-1.64 4.76,-1.64 h 1 c 1.52,0 3.96,0.84 4.76,1.64 l 0.08,-0.08 c -0.8,-0.8 -1.64,-3.24 -1.64,-4.76 v -4 h 8 v 2 c 0,7.56 -2.16,10.32 -10.6,11.6 -1.56,0.24 -4.32,-0.16 -5.44,-0.96 z"
         id="path4956" />
      <path
         d="m 92.718125,42.801641 c -2.28,-1.12 -4.56,-2.24 -6.92,-3.28 -1.24,-0.6 -2.96,-2.24 -3.28,-3.24 l -0.16,0.08 c 0.4,1.2 0,3.28 -1.28,5.72 -0.76,1.44 -2.76,3.28 -3.92,3.68 l 0.04,0.16 c 0.36,-0.12 0.88,-0.2 1.44,-0.2 1.28,0 2.92,0.32 3.92,0.8 2.16,1.04 4.4,2.08 6.56,3.16 1.28,0.64 3,2.44 3.32,3.44 l 0.16,-0.04 c -0.4,-1.28 0.04,-3.36 1.44,-5.88 0.8,-1.44 2.84,-3.24 4,-3.6 l -0.08,-0.16 c -0.32,0.12 -0.8,0.16 -1.32,0.16 -1.28,0 -2.92,-0.28 -3.92,-0.8 z m 11.959995,2.6 c -3,10.12 -9.199995,15.16 -21.039995,17.04 -1.48,0.2 -4.2,-0.12 -5.24,-0.88 l -0.08,0.12 c 1.2,0.84 2.2,2.88 2.68,5.68 0.24,1.36 -0.2,3.8 -0.8,4.64 l 0.12,0.08 c 0.64,-0.84 2.72,-1.96 4.12,-2.12 15.56,-2.12 24.280005,-9.6 27.600005,-23.08 0.35999,-1.44 1.72,-3.48 2.68,-4.04 l -0.08,-0.16 c -1.40001,0.84 -3.32,0.8 -6.04001,0.28 -1.39999,-0.28 -3.44,-1.64 -3.95999,-2.56 l -0.16,0.08 c 0.52,0.92 0.6,3.52 0.19999,4.92 z"
         id="path4958" />
      <path
         d="m 131.19812,57.921641 c 1.76,0.84 3.52,1.72 5.28,2.6 -2.64,2.12 -6.28,3.36 -11.19999,4.12 -1.56,0.24 -4.16,-0.16 -5.32001,-0.92 l -0.08,0.12 c 1.08,0.8 2.36,2.96 2.68001,5.16 0.2,1.36 -0.12,3.72 -0.72,4.56 l 0.11999,0.08 c 0.60001,-0.84 2.68001,-1.88 4,-2.04 16.92,-2.12 24.32,-10.32 24.32,-28.92 0,-1.12 0,-1.88 0.56,-2.44 l -0.12,-0.12 c -0.24,0.24 -0.96,0.56 -1.44,0.56 h -16.68 c 0.36,-1.64 0.36,-3 1.52,-3.88 l -0.11999,-0.12 c -1.64001,1.4 -7.68,0.68 -8.92,-1.16 l -0.12001,0.08 c 0.52001,0.76 0.64,3.2 0.36,4.36 -1,3.92 -2.95999,7.96 -5.64,11.4 -0.91999,1.16 -3.16,2.72 -4.28,2.84 v 0.16 c 3.2,0 7.2,3.32 7.44001,6.32 h 0.16 c -0.08,-1.08 0.8,-3.28 1.72,-4.36 2.48,-2.76 4.35999,-5.72 5.75999,-8.84 h 11.6 c -0.24,2.6 -0.63999,4.84 -1.32,6.76 -2.04,-1.04 -4.2,-2.08 -6.36,-3.08 -1.24,-0.6 -2.95999,-2.28 -3.28,-3.28 l -0.16,0.04 c 0.88,2.8 -2.2,8.24 -5.23999,9.2 l 0.04,0.16 c 0.32,-0.12 0.8,-0.16 1.32,-0.16 1.31999,0 3.03999,0.32 4.11999,0.8 z"
         id="path4960" />
      <path
         d="m 177.51812,70.481641 c 0.08,1.08 -0.44,2.92 -1,3.52 l 0.08,0.08 c 0.68,-0.68 2.52,-1.08 3.48,-1.08 1,0.04 1.8,0.08 2.4,0.08 7.56,0 8.2,-0.56 8.2,-8 v -8 h 1.6 c 0.76,0 1.96,0.44 2.36,0.84 l 0.08,-0.08 c -0.4,-0.4 -0.84,-1.6 -0.84,-2.36 v -2.8 c 0,-0.76 0.44,-1.96 0.84,-2.36 l -0.08,-0.08 c -0.4,0.4 -1.6,0.84 -2.36,0.84 h -1.6 v -1.2 h 1.2 c 0.56001,0 1.44,0.36 1.76,0.64 l 0.08,-0.08 c -0.27999,-0.32 -0.64,-1.2 -0.64,-1.76 v -6.2 c 0,-1.52 0.84,-3.96 1.64,-4.76 l -0.08,-0.08 c -0.8,0.8 -3.24,1.64 -4.76,1.64 h -5.4 v -1.72 c 0,-0.8 0.48,-2.04 0.92,-2.48 l -0.12,-0.12 c -0.44,0.44 -1.68,0.92 -2.48,0.92 h -4.2 c -0.84,0 -2.08,-0.48 -2.52,-0.92 l -0.12,0.12 c 0.44,0.44 0.92,1.68 0.92,2.48 v 1.72 h -5.2 l -3.2,-2.4 c -0.72,-0.56 -1.56,-1.84 -1.64,-2.52 h -0.16 c 0.08,0.68 -0.44,2.2 -1.04,2.88 -0.4,0.52 -0.84,1 -1.28,1.52 -0.2,-0.4 -0.4,-0.84 -0.64,-1.24 -0.27999,-0.6 -0.4,-1.72 -0.24,-2.16 l -0.16,-0.08 c -0.16,0.48 -0.87999,1.36 -1.48,1.64 l -2.72,1.48 c -0.72,0.36 -1.8,0.56 -2.64,0.56 -0.32,0 -0.6,0 -0.8,-0.08 l -0.04,0.12 c 1.72,0.68 2.80001,2.96 3.44,4.6 -1.28,0.96 -2.56,1.96 -4.24,1.96 -0.12,0 -0.24,0 -0.32,-0.04 l -0.08,0.16 c 0.63999,0.16 1.67999,1.32 2,2.12 l 0.95999,2.44 c 0.36,0.84 0.4,2.28 0.2,2.96 l 0.16,0.04 c 0.2,-0.64 1.04,-1.8 1.84,-2.28 0.52,-0.32 1,-0.68 1.48,-1 0.2,0.96 0.36001,1.92 0.52,2.92 -1.6,1.8 -4.56,4.76 -7.15999,4.76 -0.08,0 -0.16001,-0.04 -0.24001,-0.04 l -0.04,0.16 c 0.76,0.16 2.16,1.64 2.56,2.64 l 0.4,1 c 0.52,1.24 0.68,3.36 0.44,4.32 l 0.12,0.04 c 0.28,-0.96 1.4,-2.64 2.48,-3.4 0.68,-0.48 1.32,-1 1.92,-1.56 -0.04,5.08 -0.56,6.28 -1.2,6.28 -1.32,0 -3.12,-0.6 -4,-1.56 l -0.12,0.12 c 0.44,0.48 0.96,1.64 1.04,2.48 l 0.12,2.16 c 0.08,0.92 -0.4,2.72 -0.92,3.24 l 0.12,0.12 c 0.72,-0.72 2.2,-0.76 3.16,-0.76 0.84,0.12 1.64,0.2 2.2,0.2 4.28,0 5.92,-1.76 6,-12.32 1.04,0.12 3.04,1.28 3.96001,2.32 l 1.59999,1.88 c 0.96001,1.16 1.92,3.64 1.8,4.76 l 0.16001,0.04 c 0.04,-0.64 0.44,-1.6 1,-2.48 0.23999,0.48 0.39999,1.04 0.39999,1.48 z m -10.84,-25.28 c 0.88,-0.88 1.76001,-1.84 2.6,-2.8 v 4.28 c 0,1 -0.36,2.44 -0.83999,3.48 -0.32001,-0.12 -0.56001,-0.28 -0.76001,-0.44 -0.28,-1.56 -0.6,-3.08 -1,-4.52 z m 9.6,-0.12 h 10 v 1.2 h -1.48 c -0.72,0 -1.84,-0.44 -2.2,-0.8 l -0.12,0.12 c 0.36,0.36 0.8,1.48 0.8,2.16 v 3.32 h -5.8 l 0.04,-0.04 c -0.6,-0.6 -1.24,-2.44 -1.24,-3.56 z m -2.4,4.8 c 1.08,0 2.88,0.6 3.52,1.2 h -5.52 c -0.72,0 -1.64,-0.2 -2.52,-0.52 1.04,-0.4 2.24,-0.68 3.12,-0.68 z m -6.12,0.36 c 0.12,0.16 0.2,0.4 0.32,0.6 -0.08,0.12 -0.12,0.2 -0.2,0.28 z m 0.16,1.12 c 0.08,-0.08 0.2,-0.16 0.28,-0.2 0.4,0.92 0.68,2.08 0.68,2.92 0,0.68 -0.2,1.6 -0.48,2.4 -0.08,-1.76 -0.24,-3.48 -0.48,-5.12 z m 0.56,8.52 c 0,-0.64 0,-1.28 -0.04,-1.92 1.03999,-0.48 2.43999,-0.88 3.43999,-0.88 h 3.12001 l -2.24001,1.88 c -1.04,0.88 -2.92,1.64 -4.28,1.64 z m 14.8,-2.8 v 6.28 c -1.08,-0.08 -3.2,-1.36 -4.12,-2.48 -1.12,-1.36 -2.2,-2.64 -3.28,-3.8 z m -2.2,10 c -1.2,0 -2.44,-0.04 -3.56,-0.52 0.32,-0.48 0.72,-0.88 1.08,-1.2 l 0.12,-0.12 c 1.08,-0.88 3.16,-1.72 4.56,-1.72 v 2.16 c 0,1.4 -0.04,1.4 -2.2,1.4 z"
         id="path4962" />
      <path
         d="m 208.67812,43.281641 v -2.8 c 0,-1.32 0.76001,-3.44 1.44,-4.16 l -0.08,-0.08 c -1.08,1.04 -3.04,1.44 -5.56,1.44 -1.52,0 -3.96,-0.84 -4.76,-1.64 l -0.08,0.08 c 0.80001,0.8 1.64,3.24 1.64,4.76 v 14 c 0,1.52 -0.83999,3.96 -1.64,4.76 l 0.08,0.08 c 0.8,-0.8 3.24,-1.64 4.76,-1.64 2.12,0 4.08,0.72 4.76,1.6 l 0.12,-0.08 c -0.56,-0.8 -0.84,-3.4 -0.6,-4.64 1.08,-5.52 4.92,-9.28 9.12,-9.28 2.72,0 4.4,2 4.4,6.4 0,8.36 -3.16,11.76 -13.4,12.32 -1.43999,0 -4.04,-0.48 -5.12,-1.44 l -0.12,0.12 c 0.88,0.8 1.96,3.2 2.04,4.8 0.12,1.88 -0.52,4.2 -1.28,5.04 l 0.12,0.08 c 0.72,-0.8 2.96,-1.72 4.36,-1.8 14.96,-0.68 21.4,-6.6 21.4,-19.12 0,-8.72 -4.64,-13.6 -11.6,-13.6 -3.72,0 -7.2,1.68 -9.96,4.8 z"
         id="path4964" />
      <path
         d="m 243.19812,61.201641 c 1.96,-2.52 3.32,-4.36 4.32,-5.72 2.44,-3.32 2.88,-3.6 3.76,-3.6 0.76,0 1.2,0.28 4.96001,3.92 2.11999,2.08 5.51999,5.36 10.79999,10.24 1.16,1.08 2.40001,3.44 2.48,4.6 h 0.16001 c -0.20001,-2.96 4,-8.16 7.15999,-8.4 v -0.16 c -1.36,0 -3.48,-1 -4.44,-1.92 -3.39999,-3.12 -6.04,-5.68 -8.24,-7.8 -8.6,-8.24 -9.2,-8.48 -12.68,-8.48 -3.96,0 -4.68,0.4 -10.48,7.88 -1,1.28 -2.2,2.84 -3.6,4.56 -0.88,1.08 -2.92,2.36 -3.95999,2.44 v 0.16 c 3.31999,0 7.51999,4.32 7.79999,7.52 h 0.16 c -0.12,-1.28 0.76,-3.92 1.8,-5.24 z"
         id="path4966" />
    </g>
    <g
       aria-label="サンタ狩りへ"
       transform="matrix(0.26458333,0,0,0.26458333,-0.7893492,-0.80660079)"
       id="text3133-9"
       style="font-size:40px;line-height:1.25;font-family:Togalite;-inkscape-font-specification:Togalite;white-space:pre;shape-inside:url(#rect3135-6);fill:#ffcc00">
      <path
         d="m 42.758125,63.481641 c 2.52,1.64 4,7.28 2.36,9.6 l 0.16,0.12 c 0.52,-0.8 2.52,-1.84 3.8,-2 12.6,-1.6 17.6,-7.04 17.6,-18.52 v -2 h 3 c 1.4,0 3.68,0.8 4.44,1.56 l 0.12,-0.12 c -0.76,-0.76 -1.56,-3.04 -1.56,-4.44 0,-2.24 0.64,-4.32 1.56,-5.24 l -0.12,-0.12 c -0.76,0.76 -3.04,1.56 -4.44,1.56 h -3 v -3.2 c 0,-1.52 0.84,-3.96 1.64,-4.76 l -0.08,-0.08 c -2.16,2.16 -8.76,2.16 -10.92,0 l -0.08,0.08 c 0.8,0.8 1.64,3.24 1.64,4.76 v 3.2 h -8 v -3.2 c 0,-1.52 0.84,-3.96 1.64,-4.76 l -0.08,-0.08 c -2.16,2.16 -8.4,2.12 -10.52,0 l -0.08,0.08 c 0.8,0.8 1.64,3.24 1.64,4.76 v 3.2 h -3 c -1.4,0 -3.68,-0.8 -4.44,-1.56 l -0.12,0.12 c 0.88,0.88 1.56,2.92 1.56,5.24 0,1.4 -0.8,3.68 -1.56,4.44 l 0.12,0.12 c 0.76,-0.76 3.04,-1.56 4.44,-1.56 h 3 v 4 c 0,1.52 -0.84,3.96 -1.64,4.76 l 0.08,0.08 c 0.8,-0.8 3.24,-1.64 4.76,-1.64 h 1 c 1.52,0 3.96,0.84 4.76,1.64 l 0.08,-0.08 c -0.8,-0.8 -1.64,-3.24 -1.64,-4.76 v -4 h 8 v 2 c 0,7.56 -2.16,10.32 -10.6,11.6 -1.56,0.24 -4.32,-0.16 -5.44,-0.96 z"
         id="path4943" />
      <path
         d="m 92.718125,42.801641 c -2.28,-1.12 -4.56,-2.24 -6.92,-3.28 -1.24,-0.6 -2.96,-2.24 -3.28,-3.24 l -0.16,0.08 c 0.4,1.2 0,3.28 -1.28,5.72 -0.76,1.44 -2.76,3.28 -3.92,3.68 l 0.04,0.16 c 0.36,-0.12 0.88,-0.2 1.44,-0.2 1.28,0 2.92,0.32 3.92,0.8 2.16,1.04 4.4,2.08 6.56,3.16 1.28,0.64 3,2.44 3.32,3.44 l 0.16,-0.04 c -0.4,-1.28 0.04,-3.36 1.44,-5.88 0.8,-1.44 2.84,-3.24 4,-3.6 l -0.08,-0.16 c -0.32,0.12 -0.8,0.16 -1.32,0.16 -1.28,0 -2.92,-0.28 -3.92,-0.8 z m 11.959995,2.6 c -3,10.12 -9.199995,15.16 -21.039995,17.04 -1.48,0.2 -4.2,-0.12 -5.24,-0.88 l -0.08,0.12 c 1.2,0.84 2.2,2.88 2.68,5.68 0.24,1.36 -0.2,3.8 -0.8,4.64 l 0.12,0.08 c 0.64,-0.84 2.72,-1.96 4.12,-2.12 15.56,-2.12 24.280005,-9.6 27.600005,-23.08 0.35999,-1.44 1.72,-3.48 2.68,-4.04 l -0.08,-0.16 c -1.40001,0.84 -3.32,0.8 -6.04001,0.28 -1.39999,-0.28 -3.44,-1.64 -3.95999,-2.56 l -0.16,0.08 c 0.52,0.92 0.6,3.52 0.19999,4.92 z"
         id="path4945" />
      <path
         d="m 131.19812,57.921641 c 1.76,0.84 3.52,1.72 5.28,2.6 -2.64,2.12 -6.28,3.36 -11.19999,4.12 -1.56,0.24 -4.16,-0.16 -5.32001,-0.92 l -0.08,0.12 c 1.08,0.8 2.36,2.96 2.68001,5.16 0.2,1.36 -0.12,3.72 -0.72,4.56 l 0.11999,0.08 c 0.60001,-0.84 2.68001,-1.88 4,-2.04 16.92,-2.12 24.32,-10.32 24.32,-28.92 0,-1.12 0,-1.88 0.56,-2.44 l -0.12,-0.12 c -0.24,0.24 -0.96,0.56 -1.44,0.56 h -16.68 c 0.36,-1.64 0.36,-3 1.52,-3.88 l -0.11999,-0.12 c -1.64001,1.4 -7.68,0.68 -8.92,-1.16 l -0.12001,0.08 c 0.52001,0.76 0.64,3.2 0.36,4.36 -1,3.92 -2.95999,7.96 -5.64,11.4 -0.91999,1.16 -3.16,2.72 -4.28,2.84 v 0.16 c 3.2,0 7.2,3.32 7.44001,6.32 h 0.16 c -0.08,-1.08 0.8,-3.28 1.72,-4.36 2.48,-2.76 4.35999,-5.72 5.75999,-8.84 h 11.6 c -0.24,2.6 -0.63999,4.84 -1.32,6.76 -2.04,-1.04 -4.2,-2.08 -6.36,-3.08 -1.24,-0.6 -2.95999,-2.28 -3.28,-3.28 l -0.16,0.04 c 0.88,2.8 -2.2,8.24 -5.23999,9.2 l 0.04,0.16 c 0.32,-0.12 0.8,-0.16 1.32,-0.16 1.31999,0 3.03999,0.32 4.11999,0.8 z"
         id="path4947" />
      <path
         d="m 177.51812,70.481641 c 0.08,1.08 -0.44,2.92 -1,3.52 l 0.08,0.08 c 0.68,-0.68 2.52,-1.08 3.48,-1.08 1,0.04 1.8,0.08 2.4,0.08 7.56,0 8.2,-0.56 8.2,-8 v -8 h 1.6 c 0.76,0 1.96,0.44 2.36,0.84 l 0.08,-0.08 c -0.4,-0.4 -0.84,-1.6 -0.84,-2.36 v -2.8 c 0,-0.76 0.44,-1.96 0.84,-2.36 l -0.08,-0.08 c -0.4,0.4 -1.6,0.84 -2.36,0.84 h -1.6 v -1.2 h 1.2 c 0.56001,0 1.44,0.36 1.76,0.64 l 0.08,-0.08 c -0.27999,-0.32 -0.64,-1.2 -0.64,-1.76 v -6.2 c 0,-1.52 0.84,-3.96 1.64,-4.76 l -0.08,-0.08 c -0.8,0.8 -3.24,1.64 -4.76,1.64 h -5.4 v -1.72 c 0,-0.8 0.48,-2.04 0.92,-2.48 l -0.12,-0.12 c -0.44,0.44 -1.68,0.92 -2.48,0.92 h -4.2 c -0.84,0 -2.08,-0.48 -2.52,-0.92 l -0.12,0.12 c 0.44,0.44 0.92,1.68 0.92,2.48 v 1.72 h -5.2 l -3.2,-2.4 c -0.72,-0.56 -1.56,-1.84 -1.64,-2.52 h -0.16 c 0.08,0.68 -0.44,2.2 -1.04,2.88 -0.4,0.52 -0.84,1 -1.28,1.52 -0.2,-0.4 -0.4,-0.84 -0.64,-1.24 -0.27999,-0.6 -0.4,-1.72 -0.24,-2.16 l -0.16,-0.08 c -0.16,0.48 -0.87999,1.36 -1.48,1.64 l -2.72,1.48 c -0.72,0.36 -1.8,0.56 -2.64,0.56 -0.32,0 -0.6,0 -0.8,-0.08 l -0.04,0.12 c 1.72,0.68 2.80001,2.96 3.44,4.6 -1.28,0.96 -2.56,1.96 -4.24,1.96 -0.12,0 -0.24,0 -0.32,-0.04 l -0.08,0.16 c 0.63999,0.16 1.67999,1.32 2,2.12 l 0.95999,2.44 c 0.36,0.84 0.4,2.28 0.2,2.96 l 0.16,0.04 c 0.2,-0.64 1.04,-1.8 1.84,-2.28 0.52,-0.32 1,-0.68 1.48,-1 0.2,0.96 0.36001,1.92 0.52,2.92 -1.6,1.8 -4.56,4.76 -7.15999,4.76 -0.08,0 -0.16001,-0.04 -0.24001,-0.04 l -0.04,0.16 c 0.76,0.16 2.16,1.64 2.56,2.64 l 0.4,1 c 0.52,1.24 0.68,3.36 0.44,4.32 l 0.12,0.04 c 0.28,-0.96 1.4,-2.64 2.48,-3.4 0.68,-0.48 1.32,-1 1.92,-1.56 -0.04,5.08 -0.56,6.28 -1.2,6.28 -1.32,0 -3.12,-0.6 -4,-1.56 l -0.12,0.12 c 0.44,0.48 0.96,1.64 1.04,2.48 l 0.12,2.16 c 0.08,0.92 -0.4,2.72 -0.92,3.24 l 0.12,0.12 c 0.72,-0.72 2.2,-0.76 3.16,-0.76 0.84,0.12 1.64,0.2 2.2,0.2 4.28,0 5.92,-1.76 6,-12.32 1.04,0.12 3.04,1.28 3.96001,2.32 l 1.59999,1.88 c 0.96001,1.16 1.92,3.64 1.8,4.76 l 0.16001,0.04 c 0.04,-0.64 0.44,-1.6 1,-2.48 0.23999,0.48 0.39999,1.04 0.39999,1.48 z m -10.84,-25.28 c 0.88,-0.88 1.76001,-1.84 2.6,-2.8 v 4.28 c 0,1 -0.36,2.44 -0.83999,3.48 -0.32001,-0.12 -0.56001,-0.28 -0.76001,-0.44 -0.28,-1.56 -0.6,-3.08 -1,-4.52 z m 9.6,-0.12 h 10 v 1.2 h -1.48 c -0.72,0 -1.84,-0.44 -2.2,-0.8 l -0.12,0.12 c 0.36,0.36 0.8,1.48 0.8,2.16 v 3.32 h -5.8 l 0.04,-0.04 c -0.6,-0.6 -1.24,-2.44 -1.24,-3.56 z m -2.4,4.8 c 1.08,0 2.88,0.6 3.52,1.2 h -5.52 c -0.72,0 -1.64,-0.2 -2.52,-0.52 1.04,-0.4 2.24,-0.68 3.12,-0.68 z m -6.12,0.36 c 0.12,0.16 0.2,0.4 0.32,0.6 -0.08,0.12 -0.12,0.2 -0.2,0.28 z m 0.16,1.12 c 0.08,-0.08 0.2,-0.16 0.28,-0.2 0.4,0.92 0.68,2.08 0.68,2.92 0,0.68 -0.2,1.6 -0.48,2.4 -0.08,-1.76 -0.24,-3.48 -0.48,-5.12 z m 0.56,8.52 c 0,-0.64 0,-1.28 -0.04,-1.92 1.03999,-0.48 2.43999,-0.88 3.43999,-0.88 h 3.12001 l -2.24001,1.88 c -1.04,0.88 -2.92,1.64 -4.28,1.64 z m 14.8,-2.8 v 6.28 c -1.08,-0.08 -3.2,-1.36 -4.12,-2.48 -1.12,-1.36 -2.2,-2.64 -3.28,-3.8 z m -2.2,10 c -1.2,0 -2.44,-0.04 -3.56,-0.52 0.32,-0.48 0.72,-0.88 1.08,-1.2 l 0.12,-0.12 c 1.08,-0.88 3.16,-1.72 4.56,-1.72 v 2.16 c 0,1.4 -0.04,1.4 -2.2,1.4 z"
         id="path4949" />
      <path
         d="m 208.67812,43.281641 v -2.8 c 0,-1.32 0.76001,-3.44 1.44,-4.16 l -0.08,-0.08 c -1.08,1.04 -3.04,1.44 -5.56,1.44 -1.52,0 -3.96,-0.84 -4.76,-1.64 l -0.08,0.08 c 0.80001,0.8 1.64,3.24 1.64,4.76 v 14 c 0,1.52 -0.83999,3.96 -1.64,4.76 l 0.08,0.08 c 0.8,-0.8 3.24,-1.64 4.76,-1.64 2.12,0 4.08,0.72 4.76,1.6 l 0.12,-0.08 c -0.56,-0.8 -0.84,-3.4 -0.6,-4.64 1.08,-5.52 4.92,-9.28 9.12,-9.28 2.72,0 4.4,2 4.4,6.4 0,8.36 -3.16,11.76 -13.4,12.32 -1.43999,0 -4.04,-0.48 -5.12,-1.44 l -0.12,0.12 c 0.88,0.8 1.96,3.2 2.04,4.8 0.12,1.88 -0.52,4.2 -1.28,5.04 l 0.12,0.08 c 0.72,-0.8 2.96,-1.72 4.36,-1.8 14.96,-0.68 21.4,-6.6 21.4,-19.12 0,-8.72 -4.64,-13.6 -11.6,-13.6 -3.72,0 -7.2,1.68 -9.96,4.8 z"
         id="path4951" />
      <path
         d="m 243.19812,61.201641 c 1.96,-2.52 3.32,-4.36 4.32,-5.72 2.44,-3.32 2.88,-3.6 3.76,-3.6 0.76,0 1.2,0.28 4.96001,3.92 2.11999,2.08 5.51999,5.36 10.79999,10.24 1.16,1.08 2.40001,3.44 2.48,4.6 h 0.16001 c -0.20001,-2.96 4,-8.16 7.15999,-8.4 v -0.16 c -1.36,0 -3.48,-1 -4.44,-1.92 -3.39999,-3.12 -6.04,-5.68 -8.24,-7.8 -8.6,-8.24 -9.2,-8.48 -12.68,-8.48 -3.96,0 -4.68,0.4 -10.48,7.88 -1,1.28 -2.2,2.84 -3.6,4.56 -0.88,1.08 -2.92,2.36 -3.95999,2.44 v 0.16 c 3.31999,0 7.51999,4.32 7.79999,7.52 h 0.16 c -0.12,-1.28 0.76,-3.92 1.8,-5.24 z"
         id="path4953" />
    </g>
    <g
       transform="scale(0.26458333)"
       id="text18075"
       style="font-size:40px;line-height:1.25;white-space:pre;shape-inside:url(#rect18077)" />
    <g
       aria-label="GO!"
       id="text32270"
       style="font-size:21.1667px;line-height:1.25;font-family:Togalite;-inkscape-font-specification:Togalite;fill:#4d4d4d;stroke-width:0.264583">
      <path
         d="m 85.10555,12.837696 c 0.677334,0 1.418169,0.08467 2.24367,0.232833 0.846668,0.169334 2.05317,0.846669 2.476504,1.333503 l 0.0635,-0.0635 C 89.46589,13.853697 89.021389,12.604862 89.021389,11.737027 V 11.33486 c 0,-0.571501 0.338668,-1.6298359 0.677335,-1.905003 l -0.0635,-0.0635 c -0.275167,0.2328337 -1.037169,0.423334 -1.608669,0.423334 -0.105834,0 -0.190501,0 -0.275168,-0.021167 -1.016001,-0.1693336 -2.18017,-0.2751671 -3.175005,-0.2751671 -5.143508,0 -8.043346,2.9210049 -8.043346,7.9375129 0,5.101175 3.175005,7.937512 8.043346,7.937512 1.418169,0 2.836338,-0.169333 4.127507,-0.508 0.148167,-0.04233 0.3175,-0.0635 0.508001,-0.0635 0.465667,0 0.994835,0.105834 1.206502,0.296334 l 0.0635,-0.0635 c -0.296334,-0.254 -0.613835,-1.206502 -0.613835,-1.714503 v -5.990176 c 0,-0.804334 0.444501,-2.095503 0.867835,-2.518837 l -0.04233,-0.04233 C 90.270225,15.1872 88.979056,15.6317 88.174721,15.6317 h -3.492505 c -0.740835,0 -1.947337,-0.423334 -2.349504,-0.825501 l -0.0635,0.0635 c 0.402167,0.402167 0.825501,1.608669 0.825501,2.349504 v 0.211667 c 0,0.656167 -0.381,1.693336 -0.719667,2.032003 l 0.0635,0.0635 c 0.338667,-0.338667 1.375835,-0.719668 2.032003,-0.719668 h 1.375835 v 3.069172 c -0.296333,0.08467 -0.740834,0.148167 -1.058335,0.148167 -2.582337,0 -3.958173,-1.354669 -3.958173,-4.593174 0,-3.153839 1.333503,-4.593174 4.275674,-4.593174 z"
         id="path4935" />
      <path
         d="m 99.320312,9.4933571 c -4.572007,0 -7.408345,2.9845049 -7.408345,7.9375129 0,4.953008 2.836338,7.937512 7.408345,7.937512 4.572008,0 7.408348,-2.984504 7.408348,-7.937512 0,-4.953008 -2.83634,-7.9375129 -7.408348,-7.9375129 z m 0,12.3825199 c -1.947336,0 -3.069171,-1.248835 -3.069171,-4.445007 0,-3.196172 1.121835,-4.445007 3.069171,-4.445007 1.947338,0 3.069168,1.248835 3.069168,4.445007 0,3.196172 -1.12183,4.445007 -3.069168,4.445007 z"
         id="path4937" />
      <path
         d="m 110.02769,18.489205 c 0.0635,0.719668 -0.29634,1.947336 -0.67734,2.349504 l 0.0635,0.0635 c 0.381,-0.402168 1.5875,-0.825502 2.30717,-0.825502 h 0.635 c 0.71967,0 1.92617,0.423334 2.30717,0.825502 l 0.0635,-0.0635 c -0.381,-0.402168 -0.74083,-1.629836 -0.67733,-2.349504 l 0.42333,-6.985011 c 0.0423,-0.867835 0.61384,-2.2225039 1.0795,-2.6670046 l -0.0423,-0.0635 c -0.48683,0.4445007 -1.86267,0.9313348 -2.7305,0.9313348 h -1.48167 c -0.86784,0 -2.24367,-0.4868341 -2.73051,-0.9313348 l -0.0423,0.0635 c 0.46567,0.4445007 1.03717,1.7991696 1.0795,2.6670046 z m 2.43417,6.66751 c 0.80433,0 2.0955,0.444501 2.51883,0.867835 l 0.0423,-0.04233 c -0.42334,-0.423334 -0.86784,-1.714503 -0.86784,-2.518838 0,-0.804334 0.4445,-2.095503 0.86784,-2.518837 l -0.0423,-0.04233 c -0.42333,0.423334 -1.7145,0.867834 -2.51883,0.867834 h -0.84667 c -0.80434,0 -2.09551,-0.4445 -2.51884,-0.867834 l -0.0423,0.04233 c 0.42333,0.423334 0.86783,1.714503 0.86783,2.518837 0,0.804335 -0.4445,2.095504 -0.86783,2.518838 l 0.0423,0.04233 c 0.42333,-0.423334 1.7145,-0.867835 2.51884,-0.867835 z"
         id="path4939" />
    </g>
    <g
       aria-label="GO!"
       id="text32270-4"
       style="font-size:21.1667px;line-height:1.25;font-family:Togalite;-inkscape-font-specification:Togalite;fill:#00b100;stroke-width:0.264583">
      <path
         d="m 83.816548,11.426021 c 0.677335,0 1.418169,0.08467 2.243671,0.232834 0.846668,0.169334 2.05317,0.846668 2.476504,1.333502 l 0.0635,-0.0635 C 88.176889,12.442023 87.732388,11.193188 87.732388,10.325353 V 9.9231856 c 0,-0.571501 0.338667,-1.629836 0.677334,-1.9050031 l -0.0635,-0.0635 c -0.275167,0.2328337 -1.037168,0.423334 -1.608669,0.423334 -0.105833,0 -0.1905,0 -0.275167,-0.021167 -1.016002,-0.1693336 -2.18017,-0.2751671 -3.175005,-0.2751671 -5.143508,0 -8.043346,2.9210044 -8.043346,7.9375124 0,5.101175 3.175005,7.937513 8.043346,7.937513 1.418169,0 2.836338,-0.169334 4.127507,-0.508001 0.148166,-0.04233 0.3175,-0.0635 0.508,-0.0635 0.465668,0 0.994835,0.105833 1.206502,0.296334 l 0.0635,-0.0635 C 88.896557,23.36404 88.579056,22.411539 88.579056,21.903538 v -5.990176 c 0,-0.804335 0.444501,-2.095504 0.867835,-2.518838 l -0.04233,-0.04233 c -0.423334,0.423334 -1.714502,0.867835 -2.518837,0.867835 h -3.492506 c -0.740834,0 -1.947336,-0.423334 -2.349503,-0.825502 l -0.0635,0.0635 c 0.402167,0.402167 0.825501,1.608669 0.825501,2.349503 v 0.211667 c 0,0.656168 -0.381001,1.693336 -0.719668,2.032003 l 0.0635,0.0635 c 0.338667,-0.338668 1.375836,-0.719668 2.032003,-0.719668 h 1.375836 v 3.069171 c -0.296334,0.08467 -0.740835,0.148167 -1.058335,0.148167 -2.582338,0 -3.958173,-1.354669 -3.958173,-4.593174 0,-3.153838 1.333502,-4.593174 4.275673,-4.593174 z"
         id="path4928" />
      <path
         d="m 98.031311,8.0816826 c -4.572007,0 -7.408345,2.9845044 -7.408345,7.9375124 0,4.953008 2.836338,7.937513 7.408345,7.937513 4.572009,0 7.408349,-2.984505 7.408349,-7.937513 0,-4.953008 -2.83634,-7.9375124 -7.408349,-7.9375124 z m 0,12.3825194 c -1.947336,0 -3.069172,-1.248835 -3.069172,-4.445007 0,-3.196171 1.121836,-4.445007 3.069172,-4.445007 1.947336,0 3.069169,1.248836 3.069169,4.445007 0,3.196172 -1.121833,4.445007 -3.069169,4.445007 z"
         id="path4930" />
      <path
         d="m 108.73868,17.07753 c 0.0635,0.719668 -0.29633,1.947337 -0.67733,2.349504 l 0.0635,0.0635 c 0.381,-0.402167 1.5875,-0.825501 2.30717,-0.825501 h 0.635 c 0.71967,0 1.92617,0.423334 2.30717,0.825501 l 0.0635,-0.0635 c -0.381,-0.402167 -0.74083,-1.629836 -0.67733,-2.349504 l 0.42333,-6.985011 c 0.0423,-0.8678346 0.61384,-2.2225034 1.0795,-2.6670041 l -0.0423,-0.0635 c -0.48683,0.4445007 -1.86267,0.9313348 -2.7305,0.9313348 h -1.48167 c -0.86784,0 -2.24367,-0.4868341 -2.73051,-0.9313348 l -0.0423,0.0635 c 0.46567,0.4445007 1.03717,1.7991695 1.0795,2.6670041 z m 2.43417,6.667511 c 0.80434,0 2.09551,0.444501 2.51884,0.867835 l 0.0423,-0.04233 c -0.42334,-0.423334 -0.86784,-1.714503 -0.86784,-2.518837 0,-0.804335 0.4445,-2.095503 0.86784,-2.518837 l -0.0423,-0.04233 c -0.42333,0.423334 -1.7145,0.867835 -2.51884,0.867835 h -0.84666 c -0.80434,0 -2.09551,-0.444501 -2.51884,-0.867835 l -0.0423,0.04233 c 0.42333,0.423334 0.86783,1.714502 0.86783,2.518837 0,0.804334 -0.4445,2.095503 -0.86783,2.518837 l 0.0423,0.04233 c 0.42333,-0.423334 1.7145,-0.867835 2.51884,-0.867835 z"
         id="path4932" />
    </g>
    <g
       transform="scale(0.26458333)"
       id="text40972"
       style="font-size:40px;line-height:1.25;white-space:pre;shape-inside:url(#rect40974)" />
    <g
       id="text58050"
       style="font-size:10.5833px;line-height:1.25;stroke-width:0.264583" />
    <g
       aria-label="Let's go Santa hunting!"
       transform="matrix(0.26458333,0,0,0.26458333,-0.54256039,-3.4000452)"
       id="text62510"
       style="font-size:20px;line-height:1.25;font-family:Togalite;-inkscape-font-specification:Togalite;white-space:pre;shape-inside:url(#rect62512);fill:#4d4d4d">
      <path
         d="m 43.046328,92.183984 c -0.76,0 -1.98,-0.42 -2.38,-0.82 l -0.04,0.04 c 0.4,0.4 0.82,1.62 0.82,2.38 v 11.399996 c 0,0.76 -0.42,1.98 -0.82,2.38 l 0.04,0.04 c 0.4,-0.4 1.62,-0.82 2.38,-0.82 h 6.8 c 0.76,0 1.98,0.42 2.38,0.82 l 0.04,-0.04 c -0.4,-0.4 -0.82,-1.62 -0.82,-2.38 v -0.1 c 0,-0.76 0.42,-1.98 0.82,-2.38 l -0.04,-0.04 c -0.4,0.4 -1.62,0.82 -2.38,0.82 h -4.3 v -9.699996 c 0,-0.76 0.42,-1.98 0.82,-2.38 l -0.04,-0.04 c -0.4,0.4 -1.62,0.82 -2.38,0.82 z"
         id="path4885" />
      <path
         d="m 62.337578,102.68398 c 0.26,0 0.68,0.16 0.82,0.3 l 0.04,-0.06 c -0.12,-0.14 -0.26,-0.54 -0.24,-0.78 0.02,-0.2 0.02,-0.38 0.02,-0.56 0,-3.619996 -1.76,-5.399996 -5.1,-5.399996 -3.46,0 -5.3,1.96 -5.3,5.399996 0,3.52 2.14,5.4 5.9,5.4 0.86,0 1.62,-0.06 2.5,-0.22 0.1,-0.02 0.24,-0.04 0.36,-0.04 0.52,0 1.18,0.16 1.42,0.36 l 0.04,-0.06 c -0.3,-0.26 -0.62,-1.24 -0.62,-1.78 v -0.06 c 0,-0.66 0.34,-1.62 0.66,-2 l -0.06,-0.04 c -0.82,0.98 -2.5,1.24 -3.7,1.24 -1.78,0 -2.54,-0.42 -2.74,-1.7 z m -6.04,-2.1 c 0.12,-1.439996 0.62,-1.899996 1.68,-1.899996 1,0 1.5,0.52 1.5,1.899996 z"
         id="path4887" />
      <path
         d="m 70.183828,106.98398 c 0.52,0 1.04,-0.02 1.54,-0.08 0.6,0 1.38,0.04 1.86,0.48 l 0.06,-0.06 c -0.32,-0.3 -0.66,-1.34 -0.66,-1.92 v -0.6 c 0,-0.44 0.26,-1.08 0.48,-1.34 l -0.06,-0.04 c -0.56,0.56 -1.46,0.76 -2.22,0.76 -0.92,0 -1.1,-0.18 -1.1,-1.8 v -2.999996 h 1.8 c 0.62,0 1.6,0.36 1.92,0.679996 l 0.06,-0.06 c -0.32,-0.319996 -0.68,-1.299996 -0.68,-1.919996 0,-0.62 0.36,-1.6 0.68,-1.92 l -0.06,-0.06 c -0.32,0.32 -1.3,0.68 -1.92,0.68 h -1.8 v -2.2 c 0,-0.76 0.42,-1.98 0.82,-2.38 l -0.04,-0.04 c -0.4,0.4 -1.62,0.82 -2.38,0.82 h -0.6 c -0.76,0 -1.98,-0.42 -2.38,-0.82 l -0.04,0.04 c 0.4,0.4 0.82,1.62 0.82,2.38 v 2.2 h -1.04 c -0.5,0 -1.3,-0.3 -1.56,-0.56 l -0.06,0.06 c 0.26,0.26 0.56,1.06 0.56,1.54 v 0.5 c 0,0.5 -0.3,1.3 -0.56,1.56 l 0.06,0.06 c 0.26,-0.26 1.06,-0.56 1.56,-0.56 h 1.04 v 3.399996 c 0,3.18 1.08,4.2 3.9,4.2 z"
         id="path4889" />
      <path
         d="m 78.845703,93.123984 c 0.08,-0.86 0.66,-2.14 1.14,-2.58 l -0.04,-0.06 c -0.48,0.44 -1.84,0.9 -2.7,0.9 h -0.88 c -0.86,0 -2.22,-0.46 -2.7,-0.9 l -0.04,0.06 c 0.48,0.44 1.06,1.72 1.14,2.58 l 0.3,3.2 c 0.06,0.66 -0.22,1.8 -0.56,2.16 l 0.06,0.06 c 0.34,-0.38 1.44,-0.76 2.1,-0.76 h 0.28 c 0.66,0 1.76,0.38 2.1,0.76 l 0.06,-0.06 c -0.34,-0.36 -0.62,-1.5 -0.56,-2.16 z"
         id="path4891" />
      <path
         d="m 88.904141,97.883984 c 0,-0.58 0.34,-1.62 0.66,-1.9 l -0.06,-0.06 c -0.26,0.26 -1.04,0.46 -1.6,0.46 -0.1,0 -0.18,0 -0.26,-0.02 -0.88,-0.12 -1.78,-0.18 -2.74,-0.18 -3.24,0 -4.7,1.24 -4.7,3.2 0,1.919996 1.16,3.099996 4.2,3.599996 0.74,0.12 0.9,0.28 0.9,0.66 0,0.4 -0.32,0.64 -1.1,0.64 -1.42,0 -3.56,-0.26 -4.54,-1.42 l -0.06,0.04 c 0.34,0.4 0.7,1.38 0.7,2.08 v 0.22 c 0,0.5 -0.32,1.46 -0.6,1.72 l 0.06,0.06 c 0.22,-0.2 0.84,-0.36 1.34,-0.36 0.12,0 0.24,0.02 0.34,0.04 1.04,0.2 2.18,0.32 3.26,0.32 3,0 4.5,-1.22 4.5,-3.3 0,-2.1 -1.12,-3.2 -4.2,-3.6 -0.66,-0.08 -0.9,-0.319996 -0.9,-0.699996 0,-0.4 0.26,-0.6 1.18,-0.6 0.76,0 1.54,0.06 2.32,0.2 0.64,0.12 1.6,0.64 1.92,1 l 0.06,-0.04 c -0.32,-0.38 -0.68,-1.34 -0.68,-2.02 z"
         id="path4893" />
      <path
         d="m 103.6982,105.26398 0.02,0.52 c 0,1.98 -0.86,2.7 -2.7,2.7 -0.62,0 -1.179997,-0.06 -1.739997,-0.16 -0.72,-0.14 -1.8,-0.74 -2.16,-1.16 l -0.06,0.04 c 0.42,0.48 0.76,1.46 0.76,2.52 0,0.56 -0.34,1.56 -0.64,1.86 l 0.06,0.06 c 0.26,-0.26 0.98,-0.44 1.54,-0.44 0.3,0 1.279997,0.18 2.439997,0.18 3.9,0 6.2,-2 6.2,-5.6 v -7.799996 c 0,-0.76 0.42,-1.98 0.82,-2.38 l -0.04,-0.04 c -0.4,0.4 -1.62,0.82 -2.38,0.82 h -1.28 c -0.3,0 -0.78,-0.2 -0.94,-0.36 l -0.06,0.06 c 0.16,0.16 0.32,0.66 0.32,0.96 l -0.04,0.66 c -0.84,-1.02 -1.72,-1.52 -3,-1.52 -2.379997,0 -3.999997,1.84 -3.999997,5.199996 0,3.22 1.76,5.1 3.999997,5.1 1.2,0 2.14,-0.4 2.86,-1.22 z m -3.18,-3.88 c 0,-1.719996 0.56,-2.399996 1.6,-2.399996 0.9,0 1.6,0.66 1.6,1.599996 v 1.7 c 0,0.74 -0.74,1.4 -1.6,1.4 -0.94,0 -1.6,-0.74 -1.6,-2.3 z"
         id="path4895" />
      <path
         d="m 114.65727,96.183984 c -3.42,0 -5.4,2.02 -5.4,5.399996 0,3.38 1.98,5.4 5.4,5.4 3.42,0 5.4,-2.02 5.4,-5.4 0,-3.379996 -1.98,-5.399996 -5.4,-5.399996 z m 0,8.199996 c -1.08,0 -1.6,-0.68 -1.6,-2.8 0,-2.119996 0.52,-2.799996 1.6,-2.799996 1.08,0 1.6,0.68 1.6,2.799996 0,2.12 -0.52,2.8 -1.6,2.8 z"
         id="path4897" />
      <path
         d="m 137.54789,93.843984 c 0,-0.44 0.28,-1.3 0.52,-1.5 l -0.06,-0.06 c -0.16,0.14 -0.56,0.2 -0.92,0.2 -0.2,0 -0.38,-0.02 -0.52,-0.06 -1.02,-0.3 -2.18,-0.44 -3.52,-0.44 -3.66,0 -5.5,1.66 -5.5,4.2 0,2.36 1.38,3.979996 5,5.099996 1.02,0.32 1.3,0.68 1.3,1.4 0,0.74 -0.6,1.2 -1.8,1.2 -0.84,0 -1.78,-0.18 -2.66,-0.54 -0.78,-0.32 -1.76,-1.12 -2.12,-1.62 l -0.06,0.04 c 0.34,0.52 0.74,1.64 0.74,2.46 v 0.76 c 0,0.34 -0.22,1.08 -0.42,1.24 l 0.04,0.06 c 0.1,-0.06 0.3,-0.1 0.52,-0.1 0.24,0 0.5,0.04 0.66,0.1 1.02,0.46 2.24,0.7 3.5,0.7 3.9,0 5.7,-1.48 5.7,-4.4 0,-2.48 -1.18,-3.879996 -5,-4.999996 -0.94,-0.28 -1.34,-0.76 -1.34,-1.4 0,-0.72 0.44,-1.14 1.64,-1.14 1.62,0 3.96,0.54 5.02,1.88 l 0.08,-0.04 c -0.38,-0.5 -0.8,-1.64 -0.8,-2.48 z"
         id="path4899" />
      <path
         d="m 145.65727,100.18398 h -0.8 c -3.8,0 -5.4,1.38 -5.4,3.6 0,1.92 1.36,3.2 3.2,3.2 1.16,0 2.38,-0.54 3.2,-1.52 l 0.04,0.66 c 0,0.3 -0.16,0.8 -0.32,0.96 l 0.06,0.06 c 0.16,-0.16 0.64,-0.36 0.94,-0.36 h 1.28 c 0.76,0 1.98,0.42 2.38,0.82 l 0.04,-0.04 c -0.4,-0.4 -0.82,-1.62 -0.82,-2.38 v -5 c 0,-2.759996 -1.44,-3.999996 -5,-3.999996 -0.8,0 -2.12,0.14 -3.22,0.34 -0.1,0.02 -0.22,0.02 -0.34,0.02 -0.5,0 -1.16,-0.14 -1.4,-0.36 l -0.06,0.06 c 0.3,0.26 0.62,1.22 0.62,1.76 v 0.08 c 0,0.66 -0.34,1.6 -0.66,1.979996 l 0.06,0.06 c 0.32,-0.379996 1.22,-0.899996 1.88,-0.999996 1.1,-0.2 2.26,-0.34 2.92,-0.34 0.96,0 1.4,0.38 1.4,1.2 z m 0,2.1 v 0.3 c 0,1.1 -0.78,1.8 -1.8,1.8 -0.64,0 -1,-0.34 -1,-0.9 0,-0.76 0.54,-1.2 2,-1.2 z"
         id="path4901" />
      <path
         d="m 155.67133,100.58398 c 0,-0.699996 0.74,-1.399996 1.5,-1.399996 0.9,0 1.2,0.38 1.2,1.599996 v 4.4 c 0,0.76 -0.42,1.98 -0.82,2.38 l 0.04,0.04 c 0.4,-0.4 1.62,-0.82 2.38,-0.82 h 0.5 c 0.76,0 1.98,0.42 2.38,0.82 l 0.04,-0.04 c -0.4,-0.4 -0.82,-1.62 -0.82,-2.38 v -4.4 c 0,-3.419996 -1.02,-4.599996 -3.4,-4.599996 -1.24,0 -2.3,0.54 -3.1,1.52 l -0.02,-0.66 c -0.02,-0.3 0.14,-0.8 0.3,-0.96 l -0.06,-0.06 c -0.16,0.16 -0.64,0.36 -0.94,0.36 h -1.38 c -0.76,0 -1.98,-0.42 -2.38,-0.82 l -0.04,0.04 c 0.4,0.4 0.82,1.62 0.82,2.38 v 7.199996 c 0,0.76 -0.42,1.98 -0.82,2.38 l 0.04,0.04 c 0.4,-0.4 1.62,-0.82 2.38,-0.82 h 0.6 c 0.76,0 1.98,0.42 2.38,0.82 l 0.04,-0.04 c -0.4,-0.4 -0.82,-1.62 -0.82,-2.38 z"
         id="path4903" />
      <path
         d="m 169.59789,106.98398 c 0.52,0 1.04,-0.02 1.54,-0.08 0.6,0 1.38,0.04 1.86,0.48 l 0.06,-0.06 c -0.32,-0.3 -0.66,-1.34 -0.66,-1.92 v -0.6 c 0,-0.44 0.26,-1.08 0.48,-1.34 l -0.06,-0.04 c -0.56,0.56 -1.46,0.76 -2.22,0.76 -0.92,0 -1.1,-0.18 -1.1,-1.8 v -2.999996 h 1.8 c 0.62,0 1.6,0.36 1.92,0.679996 l 0.06,-0.06 c -0.32,-0.319996 -0.68,-1.299996 -0.68,-1.919996 0,-0.62 0.36,-1.6 0.68,-1.92 l -0.06,-0.06 c -0.32,0.32 -1.3,0.68 -1.92,0.68 h -1.8 v -2.2 c 0,-0.76 0.42,-1.98 0.82,-2.38 l -0.04,-0.04 c -0.4,0.4 -1.62,0.82 -2.38,0.82 h -0.6 c -0.76,0 -1.98,-0.42 -2.38,-0.82 l -0.04,0.04 c 0.4,0.4 0.82,1.62 0.82,2.38 v 2.2 h -1.04 c -0.5,0 -1.3,-0.3 -1.56,-0.56 l -0.06,0.06 c 0.26,0.26 0.56,1.06 0.56,1.54 v 0.5 c 0,0.5 -0.3,1.3 -0.56,1.56 l 0.06,0.06 c 0.26,-0.26 1.06,-0.56 1.56,-0.56 h 1.04 v 3.399996 c 0,3.18 1.08,4.2 3.9,4.2 z"
         id="path4905" />
      <path
         d="m 180.6182,100.18398 h -0.8 c -3.8,0 -5.4,1.38 -5.4,3.6 0,1.92 1.36,3.2 3.2,3.2 1.16,0 2.38,-0.54 3.2,-1.52 l 0.04,0.66 c 0,0.3 -0.16,0.8 -0.32,0.96 l 0.06,0.06 c 0.16,-0.16 0.64,-0.36 0.94,-0.36 h 1.28 c 0.76,0 1.98,0.42 2.38,0.82 l 0.04,-0.04 c -0.4,-0.4 -0.82,-1.62 -0.82,-2.38 v -5 c 0,-2.759996 -1.44,-3.999996 -5,-3.999996 -0.8,0 -2.12,0.14 -3.22,0.34 -0.1,0.02 -0.22,0.02 -0.34,0.02 -0.5,0 -1.16,-0.14 -1.4,-0.36 l -0.06,0.06 c 0.3,0.26 0.62,1.22 0.62,1.76 v 0.08 c 0,0.66 -0.34,1.6 -0.66,1.979996 l 0.06,0.06 c 0.32,-0.379996 1.22,-0.899996 1.88,-0.999996 1.1,-0.2 2.26,-0.34 2.92,-0.34 0.96,0 1.4,0.38 1.4,1.2 z m 0,2.1 v 0.3 c 0,1.1 -0.78,1.8 -1.8,1.8 -0.64,0 -1,-0.34 -1,-0.9 0,-0.76 0.54,-1.2 2,-1.2 z"
         id="path4907" />
      <path
         d="m 196.70883,100.58398 c 0,-0.699996 0.74,-1.399996 1.5,-1.399996 0.9,0 1.2,0.38 1.2,2.399996 v 3.6 c 0,0.76 -0.42,1.98 -0.82,2.38 l 0.04,0.04 c 0.4,-0.4 1.62,-0.82 2.38,-0.82 h 0.5 c 0.76,0 1.98,0.42 2.38,0.82 l 0.04,-0.04 c -0.4,-0.4 -0.82,-1.62 -0.82,-2.38 v -4 c 0,-3.919996 -1,-4.999996 -3.4,-4.999996 -0.98,0 -2,0.38 -2.98,1.2 l -0.02,-4 c 0,-0.76 0.42,-1.98 0.82,-2.36 l -0.06,-0.06 c -0.4,0.4 -1.6,0.82 -2.36,0.82 h -0.6 c -0.76,0 -1.98,-0.42 -2.38,-0.82 l -0.04,0.04 c 0.4,0.4 0.82,1.62 0.82,2.38 v 11.799996 c 0,0.76 -0.42,1.98 -0.82,2.38 l 0.04,0.04 c 0.4,-0.4 1.62,-0.82 2.38,-0.82 h 0.6 c 0.76,0 1.98,0.42 2.38,0.82 l 0.04,-0.04 c -0.4,-0.4 -0.82,-1.62 -0.82,-2.38 z"
         id="path4909" />
      <path
         d="m 211.7432,102.58398 c 0,0.7 -0.74,1.4 -1.5,1.4 -0.78,0 -1.1,-0.34 -1.1,-1.6 v -4.399996 c 0,-0.76 0.42,-1.98 0.82,-2.38 l -0.04,-0.04 c -0.4,0.4 -1.62,0.82 -2.38,0.82 h -0.5 c -0.76,0 -1.98,-0.42 -2.38,-0.82 l -0.04,0.04 c 0.4,0.4 0.82,1.62 0.82,2.38 v 4.599996 c 0,3.32 1.02,4.4 3.3,4.4 1.24,0 2.3,-0.54 3.1,-1.52 l 0.04,0.66 c 0,0.3 -0.16,0.8 -0.32,0.96 l 0.06,0.06 c 0.16,-0.16 0.64,-0.36 0.94,-0.36 h 1.38 c 0.76,0 1.98,0.42 2.38,0.82 l 0.04,-0.04 c -0.4,-0.4 -0.82,-1.62 -0.82,-2.38 v -7.199996 c 0,-0.76 0.42,-1.98 0.82,-2.38 l -0.04,-0.04 c -0.4,0.4 -1.62,0.82 -2.38,0.82 h -0.6 c -0.76,0 -1.98,-0.42 -2.38,-0.82 l -0.04,0.04 c 0.4,0.4 0.82,1.62 0.82,2.38 z"
         id="path4911" />
      <path
         d="m 221.88227,100.58398 c 0,-0.699996 0.74,-1.399996 1.5,-1.399996 0.9,0 1.2,0.38 1.2,1.599996 v 4.4 c 0,0.76 -0.42,1.98 -0.82,2.38 l 0.04,0.04 c 0.4,-0.4 1.62,-0.82 2.38,-0.82 h 0.5 c 0.76,0 1.98,0.42 2.38,0.82 l 0.04,-0.04 c -0.4,-0.4 -0.82,-1.62 -0.82,-2.38 v -4.4 c 0,-3.419996 -1.02,-4.599996 -3.4,-4.599996 -1.24,0 -2.3,0.54 -3.1,1.52 l -0.02,-0.66 c -0.02,-0.3 0.14,-0.8 0.3,-0.96 l -0.06,-0.06 c -0.16,0.16 -0.64,0.36 -0.94,0.36 h -1.38 c -0.76,0 -1.98,-0.42 -2.38,-0.82 l -0.04,0.04 c 0.4,0.4 0.82,1.62 0.82,2.38 v 7.199996 c 0,0.76 -0.42,1.98 -0.82,2.38 l 0.04,0.04 c 0.4,-0.4 1.62,-0.82 2.38,-0.82 h 0.6 c 0.76,0 1.98,0.42 2.38,0.82 l 0.04,-0.04 c -0.4,-0.4 -0.82,-1.62 -0.82,-2.38 z"
         id="path4913" />
      <path
         d="m 235.80883,106.98398 c 0.52,0 1.04,-0.02 1.54,-0.08 0.6,0 1.38,0.04 1.86,0.48 l 0.06,-0.06 c -0.32,-0.3 -0.66,-1.34 -0.66,-1.92 v -0.6 c 0,-0.44 0.26,-1.08 0.48,-1.34 l -0.06,-0.04 c -0.56,0.56 -1.46,0.76 -2.22,0.76 -0.92,0 -1.1,-0.18 -1.1,-1.8 v -2.999996 h 1.8 c 0.62,0 1.6,0.36 1.92,0.679996 l 0.06,-0.06 c -0.32,-0.319996 -0.68,-1.299996 -0.68,-1.919996 0,-0.62 0.36,-1.6 0.68,-1.92 l -0.06,-0.06 c -0.32,0.32 -1.3,0.68 -1.92,0.68 h -1.8 v -2.2 c 0,-0.76 0.42,-1.98 0.82,-2.38 l -0.04,-0.04 c -0.4,0.4 -1.62,0.82 -2.38,0.82 h -0.6 c -0.76,0 -1.98,-0.42 -2.38,-0.82 l -0.04,0.04 c 0.4,0.4 0.82,1.62 0.82,2.38 v 2.2 h -1.04 c -0.5,0 -1.3,-0.3 -1.56,-0.56 l -0.06,0.06 c 0.26,0.26 0.56,1.06 0.56,1.54 v 0.5 c 0,0.5 -0.3,1.3 -0.56,1.56 l 0.06,0.06 c 0.26,-0.26 1.06,-0.56 1.56,-0.56 h 1.04 v 3.399996 c 0,3.18 1.08,4.2 3.9,4.2 z"
         id="path4915" />
      <path
         d="m 244.32445,94.583984 c 0.66,0 1.72,0.38 2.08,0.72 l 0.04,-0.04 c -0.34,-0.36 -0.72,-1.42 -0.72,-2.08 0,-0.66 0.38,-1.72 0.72,-2.08 l -0.04,-0.04 c -0.36,0.34 -1.42,0.72 -2.08,0.72 h -1.2 c -0.66,0 -1.72,-0.38 -2.08,-0.72 l -0.04,0.04 c 0.34,0.36 0.72,1.42 0.72,2.08 0,0.66 -0.38,1.72 -0.72,2.08 l 0.04,0.04 c 0.36,-0.34 1.42,-0.72 2.08,-0.72 z m -0.2,12.199996 c 0.76,0 1.98,0.42 2.38,0.82 l 0.04,-0.04 c -0.4,-0.4 -0.82,-1.62 -0.82,-2.38 v -7.199996 c 0,-0.76 0.42,-1.98 0.82,-2.38 l -0.04,-0.04 c -0.4,0.4 -1.62,0.82 -2.38,0.82 h -0.8 c -0.76,0 -1.98,-0.42 -2.38,-0.82 l -0.04,0.04 c 0.4,0.4 0.82,1.62 0.82,2.38 v 7.199996 c 0,0.76 -0.42,1.98 -0.82,2.38 l 0.04,0.04 c 0.4,-0.4 1.62,-0.82 2.38,-0.82 z"
         id="path4917" />
      <path
         d="m 252.42914,100.58398 c 0,-0.699996 0.74,-1.399996 1.5,-1.399996 0.9,0 1.2,0.38 1.2,1.599996 v 4.4 c 0,0.76 -0.42,1.98 -0.82,2.38 l 0.04,0.04 c 0.4,-0.4 1.62,-0.82 2.38,-0.82 h 0.5 c 0.76,0 1.98,0.42 2.38,0.82 l 0.04,-0.04 c -0.4,-0.4 -0.82,-1.62 -0.82,-2.38 v -4.4 c 0,-3.419996 -1.02,-4.599996 -3.4,-4.599996 -1.24,0 -2.3,0.54 -3.1,1.52 l -0.02,-0.66 c -0.02,-0.3 0.14,-0.8 0.3,-0.96 l -0.06,-0.06 c -0.16,0.16 -0.64,0.36 -0.94,0.36 h -1.38 c -0.76,0 -1.98,-0.42 -2.38,-0.82 l -0.04,0.04 c 0.4,0.4 0.82,1.62 0.82,2.38 v 7.199996 c 0,0.76 -0.42,1.98 -0.82,2.38 l 0.04,0.04 c 0.4,-0.4 1.62,-0.82 2.38,-0.82 h 0.6 c 0.76,0 1.98,0.42 2.38,0.82 l 0.04,-0.04 c -0.4,-0.4 -0.82,-1.62 -0.82,-2.38 z"
         id="path4919" />
      <path
         d="m 267.52633,105.26398 0.02,0.52 c 0,1.98 -0.86,2.7 -2.7,2.7 -0.62,0 -1.18,-0.06 -1.74,-0.16 -0.72,-0.14 -1.8,-0.74 -2.16,-1.16 l -0.06,0.04 c 0.42,0.48 0.76,1.46 0.76,2.52 0,0.56 -0.34,1.56 -0.64,1.86 l 0.06,0.06 c 0.26,-0.26 0.98,-0.44 1.54,-0.44 0.3,0 1.28,0.18 2.44,0.18 3.9,0 6.2,-2 6.2,-5.6 v -7.799996 c 0,-0.76 0.42,-1.98 0.82,-2.38 l -0.04,-0.04 c -0.4,0.4 -1.62,0.82 -2.38,0.82 h -1.28 c -0.3,0 -0.78,-0.2 -0.94,-0.36 l -0.06,0.06 c 0.16,0.16 0.32,0.66 0.32,0.96 l -0.04,0.66 c -0.84,-1.02 -1.72,-1.52 -3,-1.52 -2.38,0 -4,1.84 -4,5.199996 0,3.22 1.76,5.1 4,5.1 1.2,0 2.14,-0.4 2.86,-1.22 z m -3.18,-3.88 c 0,-1.719996 0.56,-2.399996 1.6,-2.399996 0.9,0 1.6,0.66 1.6,1.599996 v 1.7 c 0,0.74 -0.74,1.4 -1.6,1.4 -0.94,0 -1.6,-0.74 -1.6,-2.3 z"
         id="path4921" />
      <path
         d="m 275.08539,100.48398 c 0.06,0.68 -0.28,1.84 -0.64,2.22 l 0.06,0.06 c 0.36,-0.38 1.5,-0.78 2.18,-0.78 h 0.6 c 0.68,0 1.82,0.4 2.18,0.78 l 0.06,-0.06 c -0.36,-0.38 -0.7,-1.54 -0.64,-2.22 l 0.4,-6.599996 c 0.04,-0.82 0.58,-2.1 1.02,-2.52 l -0.04,-0.06 c -0.46,0.42 -1.76,0.88 -2.58,0.88 h -1.4 c -0.82,0 -2.12,-0.46 -2.58,-0.88 l -0.04,0.06 c 0.44,0.42 0.98,1.7 1.02,2.52 z m 2.3,6.3 c 0.76,0 1.98,0.42 2.38,0.82 l 0.04,-0.04 c -0.4,-0.4 -0.82,-1.62 -0.82,-2.38 0,-0.76 0.42,-1.98 0.82,-2.38 l -0.04,-0.04 c -0.4,0.4 -1.62,0.82 -2.38,0.82 h -0.8 c -0.76,0 -1.98,-0.42 -2.38,-0.82 l -0.04,0.04 c 0.4,0.4 0.82,1.62 0.82,2.38 0,0.76 -0.42,1.98 -0.82,2.38 l 0.04,0.04 c 0.4,-0.4 1.62,-0.82 2.38,-0.82 z"
         id="path4923" />
    </g>
    <g
       aria-label="Let's go Santa hunting!"
       transform="matrix(0.26458333,0,0,0.26458333,-0.9961504,-3.9342242)"
       id="text62510-6"
       style="font-size:20px;line-height:1.25;font-family:Togalite;-inkscape-font-specification:Togalite;white-space:pre;shape-inside:url(#rect62512-9);fill:#ff0000">
      <path
         d="m 43.046328,92.183984 c -0.76,0 -1.98,-0.42 -2.38,-0.82 l -0.04,0.04 c 0.4,0.4 0.82,1.62 0.82,2.38 v 11.399996 c 0,0.76 -0.42,1.98 -0.82,2.38 l 0.04,0.04 c 0.4,-0.4 1.62,-0.82 2.38,-0.82 h 6.8 c 0.76,0 1.98,0.42 2.38,0.82 l 0.04,-0.04 c -0.4,-0.4 -0.82,-1.62 -0.82,-2.38 v -0.1 c 0,-0.76 0.42,-1.98 0.82,-2.38 l -0.04,-0.04 c -0.4,0.4 -1.62,0.82 -2.38,0.82 h -4.3 v -9.699996 c 0,-0.76 0.42,-1.98 0.82,-2.38 l -0.04,-0.04 c -0.4,0.4 -1.62,0.82 -2.38,0.82 z"
         id="path4844" />
      <path
         d="m 62.337578,102.68398 c 0.26,0 0.68,0.16 0.82,0.3 l 0.04,-0.06 c -0.12,-0.14 -0.26,-0.54 -0.24,-0.78 0.02,-0.2 0.02,-0.38 0.02,-0.56 0,-3.619996 -1.76,-5.399996 -5.1,-5.399996 -3.46,0 -5.3,1.96 -5.3,5.399996 0,3.52 2.14,5.4 5.9,5.4 0.86,0 1.62,-0.06 2.5,-0.22 0.1,-0.02 0.24,-0.04 0.36,-0.04 0.52,0 1.18,0.16 1.42,0.36 l 0.04,-0.06 c -0.3,-0.26 -0.62,-1.24 -0.62,-1.78 v -0.06 c 0,-0.66 0.34,-1.62 0.66,-2 l -0.06,-0.04 c -0.82,0.98 -2.5,1.24 -3.7,1.24 -1.78,0 -2.54,-0.42 -2.74,-1.7 z m -6.04,-2.1 c 0.12,-1.439996 0.62,-1.899996 1.68,-1.899996 1,0 1.5,0.52 1.5,1.899996 z"
         id="path4846" />
      <path
         d="m 70.183828,106.98398 c 0.52,0 1.04,-0.02 1.54,-0.08 0.6,0 1.38,0.04 1.86,0.48 l 0.06,-0.06 c -0.32,-0.3 -0.66,-1.34 -0.66,-1.92 v -0.6 c 0,-0.44 0.26,-1.08 0.48,-1.34 l -0.06,-0.04 c -0.56,0.56 -1.46,0.76 -2.22,0.76 -0.92,0 -1.1,-0.18 -1.1,-1.8 v -2.999996 h 1.8 c 0.62,0 1.6,0.36 1.92,0.679996 l 0.06,-0.06 c -0.32,-0.319996 -0.68,-1.299996 -0.68,-1.919996 0,-0.62 0.36,-1.6 0.68,-1.92 l -0.06,-0.06 c -0.32,0.32 -1.3,0.68 -1.92,0.68 h -1.8 v -2.2 c 0,-0.76 0.42,-1.98 0.82,-2.38 l -0.04,-0.04 c -0.4,0.4 -1.62,0.82 -2.38,0.82 h -0.6 c -0.76,0 -1.98,-0.42 -2.38,-0.82 l -0.04,0.04 c 0.4,0.4 0.82,1.62 0.82,2.38 v 2.2 h -1.04 c -0.5,0 -1.3,-0.3 -1.56,-0.56 l -0.06,0.06 c 0.26,0.26 0.56,1.06 0.56,1.54 v 0.5 c 0,0.5 -0.3,1.3 -0.56,1.56 l 0.06,0.06 c 0.26,-0.26 1.06,-0.56 1.56,-0.56 h 1.04 v 3.399996 c 0,3.18 1.08,4.2 3.9,4.2 z"
         id="path4848" />
      <path
         d="m 78.845703,93.123984 c 0.08,-0.86 0.66,-2.14 1.14,-2.58 l -0.04,-0.06 c -0.48,0.44 -1.84,0.9 -2.7,0.9 h -0.88 c -0.86,0 -2.22,-0.46 -2.7,-0.9 l -0.04,0.06 c 0.48,0.44 1.06,1.72 1.14,2.58 l 0.3,3.2 c 0.06,0.66 -0.22,1.8 -0.56,2.16 l 0.06,0.06 c 0.34,-0.38 1.44,-0.76 2.1,-0.76 h 0.28 c 0.66,0 1.76,0.38 2.1,0.76 l 0.06,-0.06 c -0.34,-0.36 -0.62,-1.5 -0.56,-2.16 z"
         id="path4850" />
      <path
         d="m 88.904141,97.883984 c 0,-0.58 0.34,-1.62 0.66,-1.9 l -0.06,-0.06 c -0.26,0.26 -1.04,0.46 -1.6,0.46 -0.1,0 -0.18,0 -0.26,-0.02 -0.88,-0.12 -1.78,-0.18 -2.74,-0.18 -3.24,0 -4.7,1.24 -4.7,3.2 0,1.919996 1.16,3.099996 4.2,3.599996 0.74,0.12 0.9,0.28 0.9,0.66 0,0.4 -0.32,0.64 -1.1,0.64 -1.42,0 -3.56,-0.26 -4.54,-1.42 l -0.06,0.04 c 0.34,0.4 0.7,1.38 0.7,2.08 v 0.22 c 0,0.5 -0.32,1.46 -0.6,1.72 l 0.06,0.06 c 0.22,-0.2 0.84,-0.36 1.34,-0.36 0.12,0 0.24,0.02 0.34,0.04 1.04,0.2 2.18,0.32 3.26,0.32 3,0 4.5,-1.22 4.5,-3.3 0,-2.1 -1.12,-3.2 -4.2,-3.6 -0.66,-0.08 -0.9,-0.319996 -0.9,-0.699996 0,-0.4 0.26,-0.6 1.18,-0.6 0.76,0 1.54,0.06 2.32,0.2 0.64,0.12 1.6,0.64 1.92,1 l 0.06,-0.04 c -0.32,-0.38 -0.68,-1.34 -0.68,-2.02 z"
         id="path4852" />
      <path
         d="m 103.6982,105.26398 0.02,0.52 c 0,1.98 -0.86,2.7 -2.7,2.7 -0.62,0 -1.179997,-0.06 -1.739997,-0.16 -0.72,-0.14 -1.8,-0.74 -2.16,-1.16 l -0.06,0.04 c 0.42,0.48 0.76,1.46 0.76,2.52 0,0.56 -0.34,1.56 -0.64,1.86 l 0.06,0.06 c 0.26,-0.26 0.98,-0.44 1.54,-0.44 0.3,0 1.279997,0.18 2.439997,0.18 3.9,0 6.2,-2 6.2,-5.6 v -7.799996 c 0,-0.76 0.42,-1.98 0.82,-2.38 l -0.04,-0.04 c -0.4,0.4 -1.62,0.82 -2.38,0.82 h -1.28 c -0.3,0 -0.78,-0.2 -0.94,-0.36 l -0.06,0.06 c 0.16,0.16 0.32,0.66 0.32,0.96 l -0.04,0.66 c -0.84,-1.02 -1.72,-1.52 -3,-1.52 -2.379997,0 -3.999997,1.84 -3.999997,5.199996 0,3.22 1.76,5.1 3.999997,5.1 1.2,0 2.14,-0.4 2.86,-1.22 z m -3.18,-3.88 c 0,-1.719996 0.56,-2.399996 1.6,-2.399996 0.9,0 1.6,0.66 1.6,1.599996 v 1.7 c 0,0.74 -0.74,1.4 -1.6,1.4 -0.94,0 -1.6,-0.74 -1.6,-2.3 z"
         id="path4854" />
      <path
         d="m 114.65727,96.183984 c -3.42,0 -5.4,2.02 -5.4,5.399996 0,3.38 1.98,5.4 5.4,5.4 3.42,0 5.4,-2.02 5.4,-5.4 0,-3.379996 -1.98,-5.399996 -5.4,-5.399996 z m 0,8.199996 c -1.08,0 -1.6,-0.68 -1.6,-2.8 0,-2.119996 0.52,-2.799996 1.6,-2.799996 1.08,0 1.6,0.68 1.6,2.799996 0,2.12 -0.52,2.8 -1.6,2.8 z"
         id="path4856" />
      <path
         d="m 137.54789,93.843984 c 0,-0.44 0.28,-1.3 0.52,-1.5 l -0.06,-0.06 c -0.16,0.14 -0.56,0.2 -0.92,0.2 -0.2,0 -0.38,-0.02 -0.52,-0.06 -1.02,-0.3 -2.18,-0.44 -3.52,-0.44 -3.66,0 -5.5,1.66 -5.5,4.2 0,2.36 1.38,3.979996 5,5.099996 1.02,0.32 1.3,0.68 1.3,1.4 0,0.74 -0.6,1.2 -1.8,1.2 -0.84,0 -1.78,-0.18 -2.66,-0.54 -0.78,-0.32 -1.76,-1.12 -2.12,-1.62 l -0.06,0.04 c 0.34,0.52 0.74,1.64 0.74,2.46 v 0.76 c 0,0.34 -0.22,1.08 -0.42,1.24 l 0.04,0.06 c 0.1,-0.06 0.3,-0.1 0.52,-0.1 0.24,0 0.5,0.04 0.66,0.1 1.02,0.46 2.24,0.7 3.5,0.7 3.9,0 5.7,-1.48 5.7,-4.4 0,-2.48 -1.18,-3.879996 -5,-4.999996 -0.94,-0.28 -1.34,-0.76 -1.34,-1.4 0,-0.72 0.44,-1.14 1.64,-1.14 1.62,0 3.96,0.54 5.02,1.88 l 0.08,-0.04 c -0.38,-0.5 -0.8,-1.64 -0.8,-2.48 z"
         id="path4858" />
      <path
         d="m 145.65727,100.18398 h -0.8 c -3.8,0 -5.4,1.38 -5.4,3.6 0,1.92 1.36,3.2 3.2,3.2 1.16,0 2.38,-0.54 3.2,-1.52 l 0.04,0.66 c 0,0.3 -0.16,0.8 -0.32,0.96 l 0.06,0.06 c 0.16,-0.16 0.64,-0.36 0.94,-0.36 h 1.28 c 0.76,0 1.98,0.42 2.38,0.82 l 0.04,-0.04 c -0.4,-0.4 -0.82,-1.62 -0.82,-2.38 v -5 c 0,-2.759996 -1.44,-3.999996 -5,-3.999996 -0.8,0 -2.12,0.14 -3.22,0.34 -0.1,0.02 -0.22,0.02 -0.34,0.02 -0.5,0 -1.16,-0.14 -1.4,-0.36 l -0.06,0.06 c 0.3,0.26 0.62,1.22 0.62,1.76 v 0.08 c 0,0.66 -0.34,1.6 -0.66,1.979996 l 0.06,0.06 c 0.32,-0.379996 1.22,-0.899996 1.88,-0.999996 1.1,-0.2 2.26,-0.34 2.92,-0.34 0.96,0 1.4,0.38 1.4,1.2 z m 0,2.1 v 0.3 c 0,1.1 -0.78,1.8 -1.8,1.8 -0.64,0 -1,-0.34 -1,-0.9 0,-0.76 0.54,-1.2 2,-1.2 z"
         id="path4860" />
      <path
         d="m 155.67133,100.58398 c 0,-0.699996 0.74,-1.399996 1.5,-1.399996 0.9,0 1.2,0.38 1.2,1.599996 v 4.4 c 0,0.76 -0.42,1.98 -0.82,2.38 l 0.04,0.04 c 0.4,-0.4 1.62,-0.82 2.38,-0.82 h 0.5 c 0.76,0 1.98,0.42 2.38,0.82 l 0.04,-0.04 c -0.4,-0.4 -0.82,-1.62 -0.82,-2.38 v -4.4 c 0,-3.419996 -1.02,-4.599996 -3.4,-4.599996 -1.24,0 -2.3,0.54 -3.1,1.52 l -0.02,-0.66 c -0.02,-0.3 0.14,-0.8 0.3,-0.96 l -0.06,-0.06 c -0.16,0.16 -0.64,0.36 -0.94,0.36 h -1.38 c -0.76,0 -1.98,-0.42 -2.38,-0.82 l -0.04,0.04 c 0.4,0.4 0.82,1.62 0.82,2.38 v 7.199996 c 0,0.76 -0.42,1.98 -0.82,2.38 l 0.04,0.04 c 0.4,-0.4 1.62,-0.82 2.38,-0.82 h 0.6 c 0.76,0 1.98,0.42 2.38,0.82 l 0.04,-0.04 c -0.4,-0.4 -0.82,-1.62 -0.82,-2.38 z"
         id="path4862" />
      <path
         d="m 169.59789,106.98398 c 0.52,0 1.04,-0.02 1.54,-0.08 0.6,0 1.38,0.04 1.86,0.48 l 0.06,-0.06 c -0.32,-0.3 -0.66,-1.34 -0.66,-1.92 v -0.6 c 0,-0.44 0.26,-1.08 0.48,-1.34 l -0.06,-0.04 c -0.56,0.56 -1.46,0.76 -2.22,0.76 -0.92,0 -1.1,-0.18 -1.1,-1.8 v -2.999996 h 1.8 c 0.62,0 1.6,0.36 1.92,0.679996 l 0.06,-0.06 c -0.32,-0.319996 -0.68,-1.299996 -0.68,-1.919996 0,-0.62 0.36,-1.6 0.68,-1.92 l -0.06,-0.06 c -0.32,0.32 -1.3,0.68 -1.92,0.68 h -1.8 v -2.2 c 0,-0.76 0.42,-1.98 0.82,-2.38 l -0.04,-0.04 c -0.4,0.4 -1.62,0.82 -2.38,0.82 h -0.6 c -0.76,0 -1.98,-0.42 -2.38,-0.82 l -0.04,0.04 c 0.4,0.4 0.82,1.62 0.82,2.38 v 2.2 h -1.04 c -0.5,0 -1.3,-0.3 -1.56,-0.56 l -0.06,0.06 c 0.26,0.26 0.56,1.06 0.56,1.54 v 0.5 c 0,0.5 -0.3,1.3 -0.56,1.56 l 0.06,0.06 c 0.26,-0.26 1.06,-0.56 1.56,-0.56 h 1.04 v 3.399996 c 0,3.18 1.08,4.2 3.9,4.2 z"
         id="path4864" />
      <path
         d="m 180.6182,100.18398 h -0.8 c -3.8,0 -5.4,1.38 -5.4,3.6 0,1.92 1.36,3.2 3.2,3.2 1.16,0 2.38,-0.54 3.2,-1.52 l 0.04,0.66 c 0,0.3 -0.16,0.8 -0.32,0.96 l 0.06,0.06 c 0.16,-0.16 0.64,-0.36 0.94,-0.36 h 1.28 c 0.76,0 1.98,0.42 2.38,0.82 l 0.04,-0.04 c -0.4,-0.4 -0.82,-1.62 -0.82,-2.38 v -5 c 0,-2.759996 -1.44,-3.999996 -5,-3.999996 -0.8,0 -2.12,0.14 -3.22,0.34 -0.1,0.02 -0.22,0.02 -0.34,0.02 -0.5,0 -1.16,-0.14 -1.4,-0.36 l -0.06,0.06 c 0.3,0.26 0.62,1.22 0.62,1.76 v 0.08 c 0,0.66 -0.34,1.6 -0.66,1.979996 l 0.06,0.06 c 0.32,-0.379996 1.22,-0.899996 1.88,-0.999996 1.1,-0.2 2.26,-0.34 2.92,-0.34 0.96,0 1.4,0.38 1.4,1.2 z m 0,2.1 v 0.3 c 0,1.1 -0.78,1.8 -1.8,1.8 -0.64,0 -1,-0.34 -1,-0.9 0,-0.76 0.54,-1.2 2,-1.2 z"
         id="path4866" />
      <path
         d="m 196.70883,100.58398 c 0,-0.699996 0.74,-1.399996 1.5,-1.399996 0.9,0 1.2,0.38 1.2,2.399996 v 3.6 c 0,0.76 -0.42,1.98 -0.82,2.38 l 0.04,0.04 c 0.4,-0.4 1.62,-0.82 2.38,-0.82 h 0.5 c 0.76,0 1.98,0.42 2.38,0.82 l 0.04,-0.04 c -0.4,-0.4 -0.82,-1.62 -0.82,-2.38 v -4 c 0,-3.919996 -1,-4.999996 -3.4,-4.999996 -0.98,0 -2,0.38 -2.98,1.2 l -0.02,-4 c 0,-0.76 0.42,-1.98 0.82,-2.36 l -0.06,-0.06 c -0.4,0.4 -1.6,0.82 -2.36,0.82 h -0.6 c -0.76,0 -1.98,-0.42 -2.38,-0.82 l -0.04,0.04 c 0.4,0.4 0.82,1.62 0.82,2.38 v 11.799996 c 0,0.76 -0.42,1.98 -0.82,2.38 l 0.04,0.04 c 0.4,-0.4 1.62,-0.82 2.38,-0.82 h 0.6 c 0.76,0 1.98,0.42 2.38,0.82 l 0.04,-0.04 c -0.4,-0.4 -0.82,-1.62 -0.82,-2.38 z"
         id="path4868" />
      <path
         d="m 211.7432,102.58398 c 0,0.7 -0.74,1.4 -1.5,1.4 -0.78,0 -1.1,-0.34 -1.1,-1.6 v -4.399996 c 0,-0.76 0.42,-1.98 0.82,-2.38 l -0.04,-0.04 c -0.4,0.4 -1.62,0.82 -2.38,0.82 h -0.5 c -0.76,0 -1.98,-0.42 -2.38,-0.82 l -0.04,0.04 c 0.4,0.4 0.82,1.62 0.82,2.38 v 4.599996 c 0,3.32 1.02,4.4 3.3,4.4 1.24,0 2.3,-0.54 3.1,-1.52 l 0.04,0.66 c 0,0.3 -0.16,0.8 -0.32,0.96 l 0.06,0.06 c 0.16,-0.16 0.64,-0.36 0.94,-0.36 h 1.38 c 0.76,0 1.98,0.42 2.38,0.82 l 0.04,-0.04 c -0.4,-0.4 -0.82,-1.62 -0.82,-2.38 v -7.199996 c 0,-0.76 0.42,-1.98 0.82,-2.38 l -0.04,-0.04 c -0.4,0.4 -1.62,0.82 -2.38,0.82 h -0.6 c -0.76,0 -1.98,-0.42 -2.38,-0.82 l -0.04,0.04 c 0.4,0.4 0.82,1.62 0.82,2.38 z"
         id="path4870" />
      <path
         d="m 221.88227,100.58398 c 0,-0.699996 0.74,-1.399996 1.5,-1.399996 0.9,0 1.2,0.38 1.2,1.599996 v 4.4 c 0,0.76 -0.42,1.98 -0.82,2.38 l 0.04,0.04 c 0.4,-0.4 1.62,-0.82 2.38,-0.82 h 0.5 c 0.76,0 1.98,0.42 2.38,0.82 l 0.04,-0.04 c -0.4,-0.4 -0.82,-1.62 -0.82,-2.38 v -4.4 c 0,-3.419996 -1.02,-4.599996 -3.4,-4.599996 -1.24,0 -2.3,0.54 -3.1,1.52 l -0.02,-0.66 c -0.02,-0.3 0.14,-0.8 0.3,-0.96 l -0.06,-0.06 c -0.16,0.16 -0.64,0.36 -0.94,0.36 h -1.38 c -0.76,0 -1.98,-0.42 -2.38,-0.82 l -0.04,0.04 c 0.4,0.4 0.82,1.62 0.82,2.38 v 7.199996 c 0,0.76 -0.42,1.98 -0.82,2.38 l 0.04,0.04 c 0.4,-0.4 1.62,-0.82 2.38,-0.82 h 0.6 c 0.76,0 1.98,0.42 2.38,0.82 l 0.04,-0.04 c -0.4,-0.4 -0.82,-1.62 -0.82,-2.38 z"
         id="path4872" />
      <path
         d="m 235.80883,106.98398 c 0.52,0 1.04,-0.02 1.54,-0.08 0.6,0 1.38,0.04 1.86,0.48 l 0.06,-0.06 c -0.32,-0.3 -0.66,-1.34 -0.66,-1.92 v -0.6 c 0,-0.44 0.26,-1.08 0.48,-1.34 l -0.06,-0.04 c -0.56,0.56 -1.46,0.76 -2.22,0.76 -0.92,0 -1.1,-0.18 -1.1,-1.8 v -2.999996 h 1.8 c 0.62,0 1.6,0.36 1.92,0.679996 l 0.06,-0.06 c -0.32,-0.319996 -0.68,-1.299996 -0.68,-1.919996 0,-0.62 0.36,-1.6 0.68,-1.92 l -0.06,-0.06 c -0.32,0.32 -1.3,0.68 -1.92,0.68 h -1.8 v -2.2 c 0,-0.76 0.42,-1.98 0.82,-2.38 l -0.04,-0.04 c -0.4,0.4 -1.62,0.82 -2.38,0.82 h -0.6 c -0.76,0 -1.98,-0.42 -2.38,-0.82 l -0.04,0.04 c 0.4,0.4 0.82,1.62 0.82,2.38 v 2.2 h -1.04 c -0.5,0 -1.3,-0.3 -1.56,-0.56 l -0.06,0.06 c 0.26,0.26 0.56,1.06 0.56,1.54 v 0.5 c 0,0.5 -0.3,1.3 -0.56,1.56 l 0.06,0.06 c 0.26,-0.26 1.06,-0.56 1.56,-0.56 h 1.04 v 3.399996 c 0,3.18 1.08,4.2 3.9,4.2 z"
         id="path4874" />
      <path
         d="m 244.32445,94.583984 c 0.66,0 1.72,0.38 2.08,0.72 l 0.04,-0.04 c -0.34,-0.36 -0.72,-1.42 -0.72,-2.08 0,-0.66 0.38,-1.72 0.72,-2.08 l -0.04,-0.04 c -0.36,0.34 -1.42,0.72 -2.08,0.72 h -1.2 c -0.66,0 -1.72,-0.38 -2.08,-0.72 l -0.04,0.04 c 0.34,0.36 0.72,1.42 0.72,2.08 0,0.66 -0.38,1.72 -0.72,2.08 l 0.04,0.04 c 0.36,-0.34 1.42,-0.72 2.08,-0.72 z m -0.2,12.199996 c 0.76,0 1.98,0.42 2.38,0.82 l 0.04,-0.04 c -0.4,-0.4 -0.82,-1.62 -0.82,-2.38 v -7.199996 c 0,-0.76 0.42,-1.98 0.82,-2.38 l -0.04,-0.04 c -0.4,0.4 -1.62,0.82 -2.38,0.82 h -0.8 c -0.76,0 -1.98,-0.42 -2.38,-0.82 l -0.04,0.04 c 0.4,0.4 0.82,1.62 0.82,2.38 v 7.199996 c 0,0.76 -0.42,1.98 -0.82,2.38 l 0.04,0.04 c 0.4,-0.4 1.62,-0.82 2.38,-0.82 z"
         id="path4876" />
      <path
         d="m 252.42914,100.58398 c 0,-0.699996 0.74,-1.399996 1.5,-1.399996 0.9,0 1.2,0.38 1.2,1.599996 v 4.4 c 0,0.76 -0.42,1.98 -0.82,2.38 l 0.04,0.04 c 0.4,-0.4 1.62,-0.82 2.38,-0.82 h 0.5 c 0.76,0 1.98,0.42 2.38,0.82 l 0.04,-0.04 c -0.4,-0.4 -0.82,-1.62 -0.82,-2.38 v -4.4 c 0,-3.419996 -1.02,-4.599996 -3.4,-4.599996 -1.24,0 -2.3,0.54 -3.1,1.52 l -0.02,-0.66 c -0.02,-0.3 0.14,-0.8 0.3,-0.96 l -0.06,-0.06 c -0.16,0.16 -0.64,0.36 -0.94,0.36 h -1.38 c -0.76,0 -1.98,-0.42 -2.38,-0.82 l -0.04,0.04 c 0.4,0.4 0.82,1.62 0.82,2.38 v 7.199996 c 0,0.76 -0.42,1.98 -0.82,2.38 l 0.04,0.04 c 0.4,-0.4 1.62,-0.82 2.38,-0.82 h 0.6 c 0.76,0 1.98,0.42 2.38,0.82 l 0.04,-0.04 c -0.4,-0.4 -0.82,-1.62 -0.82,-2.38 z"
         id="path4878" />
      <path
         d="m 267.52633,105.26398 0.02,0.52 c 0,1.98 -0.86,2.7 -2.7,2.7 -0.62,0 -1.18,-0.06 -1.74,-0.16 -0.72,-0.14 -1.8,-0.74 -2.16,-1.16 l -0.06,0.04 c 0.42,0.48 0.76,1.46 0.76,2.52 0,0.56 -0.34,1.56 -0.64,1.86 l 0.06,0.06 c 0.26,-0.26 0.98,-0.44 1.54,-0.44 0.3,0 1.28,0.18 2.44,0.18 3.9,0 6.2,-2 6.2,-5.6 v -7.799996 c 0,-0.76 0.42,-1.98 0.82,-2.38 l -0.04,-0.04 c -0.4,0.4 -1.62,0.82 -2.38,0.82 h -1.28 c -0.3,0 -0.78,-0.2 -0.94,-0.36 l -0.06,0.06 c 0.16,0.16 0.32,0.66 0.32,0.96 l -0.04,0.66 c -0.84,-1.02 -1.72,-1.52 -3,-1.52 -2.38,0 -4,1.84 -4,5.199996 0,3.22 1.76,5.1 4,5.1 1.2,0 2.14,-0.4 2.86,-1.22 z m -3.18,-3.88 c 0,-1.719996 0.56,-2.399996 1.6,-2.399996 0.9,0 1.6,0.66 1.6,1.599996 v 1.7 c 0,0.74 -0.74,1.4 -1.6,1.4 -0.94,0 -1.6,-0.74 -1.6,-2.3 z"
         id="path4880" />
      <path
         d="m 275.08539,100.48398 c 0.06,0.68 -0.28,1.84 -0.64,2.22 l 0.06,0.06 c 0.36,-0.38 1.5,-0.78 2.18,-0.78 h 0.6 c 0.68,0 1.82,0.4 2.18,0.78 l 0.06,-0.06 c -0.36,-0.38 -0.7,-1.54 -0.64,-2.22 l 0.4,-6.599996 c 0.04,-0.82 0.58,-2.1 1.02,-2.52 l -0.04,-0.06 c -0.46,0.42 -1.76,0.88 -2.58,0.88 h -1.4 c -0.82,0 -2.12,-0.46 -2.58,-0.88 l -0.04,0.06 c 0.44,0.42 0.98,1.7 1.02,2.52 z m 2.3,6.3 c 0.76,0 1.98,0.42 2.38,0.82 l 0.04,-0.04 c -0.4,-0.4 -0.82,-1.62 -0.82,-2.38 0,-0.76 0.42,-1.98 0.82,-2.38 l -0.04,-0.04 c -0.4,0.4 -1.62,0.82 -2.38,0.82 h -0.8 c -0.76,0 -1.98,-0.42 -2.38,-0.82 l -0.04,0.04 c 0.4,0.4 0.82,1.62 0.82,2.38 0,0.76 -0.42,1.98 -0.82,2.38 l 0.04,0.04 c 0.4,-0.4 1.62,-0.82 2.38,-0.82 z"
         id="path4882" />
    </g>
  </g>
</svg>
