<?xml version="1.0" encoding="UTF-8" standalone="no"?>
<!-- Created with Inkscape (http://www.inkscape.org/) -->

<svg
   width="115.29484mm"
   height="40.559002mm"
   viewBox="0 0 115.29484 40.559002"
   version="1.1"
   id="svg5"
   inkscape:version="1.2 (dc2aeda, 2022-05-15)"
   sodipodi:docname="walls.svg"
   xmlns:inkscape="http://www.inkscape.org/namespaces/inkscape"
   xmlns:sodipodi="http://sodipodi.sourceforge.net/DTD/sodipodi-0.dtd"
   xmlns="http://www.w3.org/2000/svg"
   xmlns:svg="http://www.w3.org/2000/svg">
  <sodipodi:namedview
     id="namedview7"
     pagecolor="#4b4b4b"
     bordercolor="#666666"
     borderopacity="1.0"
     inkscape:pageshadow="2"
     inkscape:pageopacity="0"
     inkscape:pagecheckerboard="0"
     inkscape:document-units="mm"
     showgrid="false"
     inkscape:zoom="1.1243229"
     inkscape:cx="248.59406"
     inkscape:cy="234.80799"
     inkscape:window-width="1680"
     inkscape:window-height="936"
     inkscape:window-x="0"
     inkscape:window-y="25"
     inkscape:window-maximized="0"
     inkscape:current-layer="text910"
     inkscape:showpageshadow="2"
     inkscape:deskcolor="#4b4b4b" />
  <defs
     id="defs2" />
  <g
     inkscape:label="レイヤー 1"
     inkscape:groupmode="layer"
     id="layer1"
     transform="translate(-1.1120392,-0.64351088)">
    <rect
       style="fill:#fff200;fill-opacity:1;stroke-width:0.312513"
       id="rect846"
       width="27.479132"
       height="40.559002"
       x="1.1120392"
       y="0.64351088" />
    <rect
       style="fill:#23b14b;fill-opacity:1;stroke-width:0.317641"
       id="rect914"
       width="25.499613"
       height="31.727777"
       x="9.4415646"
       y="9.452899" />
    <rect
       style="fill:#ed2324;fill-opacity:1;stroke-width:0.296348"
       id="rect982"
       width="20.916073"
       height="23.446053"
       x="18.57011"
       y="17.756462" />
    <rect
       style="fill:#00a2e8;fill-opacity:1;stroke-width:0.289152"
       id="rect1050"
       width="16.083439"
       height="16.325666"
       x="28.591171"
       y="24.855011" />
    <g
       aria-label="YotioSoft"
       id="text1442"
       style="font-weight:bold;font-size:28.2222px;line-height:1.25;font-family:'Nunito Sans';-inkscape-font-specification:'Nunito Sans Bold';fill:#ffffff;stroke-width:0.264583">
      <g
         aria-label="Walls"
         id="text910"
         style="font-weight:normal;font-size:25.4px;font-family:Arial;-inkscape-font-specification:Arial;stroke-width:0.0700042">
        <path
           d="M 61.377681,29.180525 56.553169,10.998689 h 2.468067 l 2.765722,11.918652 q 0.446485,1.872754 0.768946,3.720703 0.694531,-2.91455 0.818554,-3.361035 l 3.460254,-12.27832 h 2.902148 l 2.604493,9.202539 q 0.979785,3.423047 1.413867,6.436816 0.347265,-1.723925 0.905371,-3.956347 L 77.51313,10.998689 h 2.418457 L 74.945845,29.180525 H 72.626607 L 68.794282,15.327107 q -0.483691,-1.736328 -0.570507,-2.133203 -0.285254,1.252637 -0.533301,2.133203 l -3.857129,13.853418 z"
           id="path849" />
        <path
           d="m 89.543404,27.555818 q -1.240235,1.054199 -2.393652,1.488281 -1.141016,0.434082 -2.455664,0.434082 -2.170411,0 -3.336231,-1.054199 -1.16582,-1.066602 -1.16582,-2.716113 0,-0.967383 0.434082,-1.761133 0.446484,-0.806152 1.153418,-1.289844 0.719336,-0.483691 1.612304,-0.731738 0.657325,-0.173633 1.984375,-0.334863 2.703711,-0.322461 3.981153,-0.768946 0.0124,-0.458886 0.0124,-0.58291 0,-1.364258 -0.632519,-1.922363 -0.855762,-0.756543 -2.542481,-0.756543 -1.575098,0 -2.33164,0.558105 -0.744141,0.545703 -1.103809,1.947168 l -2.182813,-0.297656 q 0.297657,-1.401465 0.979786,-2.257226 0.682128,-0.868165 1.971972,-1.327051 1.289844,-0.471289 2.988965,-0.471289 1.686719,0 2.740918,0.396875 1.054199,0.396875 1.550293,1.00459 0.496094,0.595312 0.694531,1.513085 0.111621,0.570508 0.111621,2.058789 v 2.976563 q 0,3.112988 0.136426,3.943945 0.148828,0.818555 0.570508,1.575098 h -2.331641 q -0.347265,-0.694531 -0.446484,-1.624707 z m -0.186035,-4.985742 q -1.21543,0.496093 -3.646289,0.843359 -1.37666,0.198438 -1.947168,0.446484 -0.570508,0.248047 -0.880567,0.731739 -0.310058,0.471289 -0.310058,1.054199 0,0.892969 0.669726,1.488281 0.682129,0.595313 1.984375,0.595313 1.289844,0 2.294434,-0.558106 1.00459,-0.570508 1.475879,-1.550293 0.359668,-0.756543 0.359668,-2.232422 z"
           id="path851" />
        <path
           d="M 95.025239,29.180525 V 10.998689 h 2.232422 v 18.181836 z"
           id="path853" />
        <path
           d="M 100.66831,29.180525 V 10.998689 h 2.23242 v 18.181836 z"
           id="path855" />
        <path
           d="m 105.46801,25.248982 2.20762,-0.347266 q 0.18603,1.327051 1.02939,2.033985 0.85577,0.706933 2.38125,0.706933 1.53789,0 2.28204,-0.620117 0.74414,-0.632519 0.74414,-1.475879 0,-0.756543 -0.65733,-1.190625 -0.45889,-0.297656 -2.28203,-0.756543 -2.45566,-0.620117 -3.41064,-1.066601 -0.94258,-0.458887 -1.43868,-1.252637 -0.48369,-0.806152 -0.48369,-1.773535 0,-0.880567 0.39688,-1.624707 0.40927,-0.756543 1.10381,-1.252637 0.52089,-0.384473 1.41386,-0.644922 0.90537,-0.272851 1.93477,-0.272851 1.55029,0 2.71611,0.446484 1.17822,0.446484 1.73633,1.21543 0.55811,0.756543 0.76895,2.033984 l -2.18282,0.297656 q -0.14883,-1.016992 -0.86816,-1.5875 -0.70693,-0.570507 -2.00918,-0.570507 -1.53789,0 -2.19522,0.508496 -0.65732,0.508496 -0.65732,1.190625 0,0.434082 0.27285,0.781347 0.27285,0.359668 0.85576,0.595313 0.33487,0.124023 1.97198,0.570508 2.36884,0.632519 3.29902,1.041796 0.94258,0.396875 1.47588,1.165821 0.5333,0.768945 0.5333,1.909961 0,1.116211 -0.65732,2.108398 -0.64493,0.979785 -1.87276,1.525488 -1.22783,0.533301 -2.77812,0.533301 -2.56729,0 -3.91914,-1.066601 -1.33946,-1.066602 -1.71153,-3.162598 z"
           id="path857" />
      </g>
    </g>
  </g>
</svg>
