<?xml version="1.0" encoding="UTF-8"?>
<svg viewBox="0 0 1052.362179 744.09447" xmlns="http://www.w3.org/2000/svg" xmlns:xlink="http://www.w3.org/1999/xlink">
 <defs>
  <linearGradient id="c">
   <stop offset="0"/>
   <stop stop-opacity="0" offset="1"/>
  </linearGradient>
  <linearGradient id="d">
   <stop stop-color="#808080" offset="0"/>
   <stop stop-color="#808080" stop-opacity="0" offset="1"/>
  </linearGradient>
  <linearGradient id="a">
   <stop stop-color="#fff" offset="0"/>
   <stop stop-color="#fff" stop-opacity="0" offset="1"/>
  </linearGradient>
  <linearGradient id="b">
   <stop stop-color="#b3b3b3" offset="0"/>
   <stop stop-color="#b3b3b3" stop-opacity="0" offset="1"/>
  </linearGradient>
  <linearGradient id="r" x1="491.76" x2="534.37" y1="130.26" y2="131.41" gradientUnits="userSpaceOnUse">
   <stop stop-color="#333" offset="0"/>
   <stop stop-color="#333" stop-opacity="0" offset="1"/>
  </linearGradient>
  <linearGradient id="q" x1="148.56" x2="231.48" y1="494.19" y2="443.51" gradientUnits="userSpaceOnUse">
   <stop stop-color="#4d4d4d" offset="0"/>
   <stop stop-color="#4d4d4d" stop-opacity="0" offset="1"/>
  </linearGradient>
  <linearGradient id="p" x1="791.19" x2="870.65" y1="414.72" y2="395.14" gradientUnits="userSpaceOnUse">
   <stop stop-color="#666" offset="0"/>
   <stop stop-color="#666" stop-opacity="0" offset="1"/>
  </linearGradient>
  <linearGradient id="o" x1="261.43" x2="322.46" y1="326.04" y2="349.08" gradientUnits="userSpaceOnUse" xlink:href="#b"/>
  <linearGradient id="n" x1="246.45" x2="262.58" y1="352.53" y2="432" gradientUnits="userSpaceOnUse" xlink:href="#b"/>
  <linearGradient id="m" x1="156.46" x2="133.75" y1="236.79" y2="295.06" gradientUnits="userSpaceOnUse" xlink:href="#a"/>
  <linearGradient id="l" x1="369.93" x2="494.43" y1="251.27" y2="250.42" gradientUnits="userSpaceOnUse" xlink:href="#d"/>
  <linearGradient id="k" x1="433.23" x2="522.81" y1="183.01" y2="205" gradientUnits="userSpaceOnUse" xlink:href="#b"/>
  <linearGradient id="j" x1="710.49" x2="568.79" y1="132.04" y2="183.35" gradientUnits="userSpaceOnUse" xlink:href="#a"/>
  <linearGradient id="i" x1="982.91" x2="917.76" y1="356.47" y2="374.38" gradientUnits="userSpaceOnUse" xlink:href="#a"/>
  <linearGradient id="h" x1="846.47" x2="517.09" y1="328.35" y2="404.36" gradientUnits="userSpaceOnUse" xlink:href="#a"/>
  <linearGradient id="g" x1="441.88" x2="481.28" y1="634.77" y2="506.86" gradientUnits="userSpaceOnUse" xlink:href="#d"/>
  <radialGradient id="f" cx="547.32" cy="256.37" r="165.55" gradientTransform="matrix(1 0 0 .29565 0 180.57)" gradientUnits="userSpaceOnUse" xlink:href="#c"/>
  <radialGradient id="e" cx="534.94" cy="631.23" r="348.38" gradientTransform="matrix(1 0 0 .19835 0 506.03)" gradientUnits="userSpaceOnUse" xlink:href="#c"/>
 </defs>
 <path transform="matrix(1.2347 0 0 1.7833 -118.65 -515.2)" d="m883.32 631.23a348.38 69.099 0 1 1 -696.75 0 348.38 69.099 0 1 1 696.75 0z" fill="url(#e)"/>
 <path d="m374.29 592.08 1.1517 5.7583c12.243 20.101 29.188 36.55 49.041 49.373 1.2965 0.83745 2.4939 1.8799 3.9263 2.466 68.421 27.997 165.2 26.941 225.66 5.4597 1.5088-0.53606 2.7534-1.6263 4.1053-2.467 20.279-12.612 36.776-29.365 47.215-50.225l1.7275-6.9099z" fill="#28170b"/>
 <path d="m350.1 258.1 395.02 8.0616c109 89.566 123.13 214.4-4.6066 321.31-111.25 65.28-243.35 95.522-414.6-16.123-109.11-6.8592-173.32-74.81-188.77-209.11-16.965-29.967-5.9901-95.776-78.411-86.861-3.455-7.2938-3.0711-14.588 1.1516-21.881 19.217-22.361 47.155-22.044 73.706-25.336 28.106 23.49 71.99 59.558 79.591 97.239 0.40416 2.0034 2.0388 3.5122 2.9878 5.2595 14.125 26.007 23.068 47.41 40.648 46.064 12.102-54.735 50.899-88.112 93.284-118.62z" fill="#fca"/>
 <path d="m354.71 236.79c-5.9348 13.82-4.4455 27.64-2.8791 41.46 110.58 65.951 272.48 65.06 392.14 9.789 0.74764-14.588 6.2276-29.175-2.8791-43.763-6.742-11.743-18.246-22.716-33.283-32.424-1.6392-1.0582-3.1306-2.5237-5.042-3.129-69.261-21.932-206.85-27.761-305.38-3.4931-1.5969 0.39328-2.8579 1.6275-4.2728 2.4645-13.813 8.171-26.723 17.825-38.4 29.096z" fill="#fca"/>
 <path d="m817.1 487.85-10.587 25.201-25.114 33.533c55.988-29.62 104.79-49.364 127.93-79.758 72.738-95.519 57.141-172.27 14.782-205.54-37.519-29.463-95.026-24.293-139.84 42.297l22.601 32.742 16.555 37.509c-0.0147-49.547 10.758-75.134 34.52-86.047 29.039-13.336 56.354 6.2128 64.263 27.114 5.4608 14.432 14.543 27.314 4.4183 59.02-11.732 36.743-54.842 77.678-109.54 113.93z" fill="#fca"/>
 <path d="m319.01 567.89c-4.6066-1.1517-51.824-95.587-51.824-95.587-77.93-29.764-54.081-149.55-156.62-199.24h-52.976c98.622-5.4466 68.055 131.75 105.45 193.79 1.6031 2.6592 3.309 5.2422 5.0042 7.8175 33.188 50.418 77.094 88.734 150.97 93.218z" fill="url(#q)"/>
 <path transform="matrix(.93441 -.35619 .35619 .93441 -119.88 167.4)" d="m211.9 155.6a35.701 10.365 0 1 1 -71.403 0 35.701 10.365 0 1 1 71.403 0z" fill="#b3b3b3"/>
 <path d="m817.11 486.47-10.587 25.201-25.114 33.533c55.988-29.62 104.79-49.364 127.93-79.758 72.738-95.519 57.141-172.27 14.782-205.54-37.519-29.463-95.026-24.293-139.84 42.297l22.601 32.742 16.555 37.509c-0.0147-49.547 10.758-75.134 34.52-86.047 29.039-13.336 56.354 6.2128 64.263 27.114 5.4608 14.432 14.543 27.314 4.4183 59.02-11.732 36.743-54.842 77.678-109.54 113.93z" fill="url(#p)"/>
 <path d="m254.52 376.72 6.9099 29.943c24.035 33.938 32.836 5.1968 43.181 0.38826 3.177-1.4767 10.796-2.0374 8.8817-4.6582-27.157-37.178 14.541-101.74 36.614-141.99-39.448 27.394-74.45 61.457-95.587 116.32z" fill="url(#o)"/>
 <path d="m254.52 377.87c-12.121-0.90787-24.875-31.128-40.308-48.369 6.1422 38.388 27.256 64.493 51.824 78.312z" fill="url(#n)"/>
 <path d="m141.32 233.5c5.326 13.328-8.9524 23.012-26.906 32.011 41.32 11.922 71.834 42.598 103.42 71.41-0.43284-40.79-41.273-72.102-76.515-103.42z" fill="url(#m)"/>
 <path transform="matrix(1.0835 0 0 1.0941 -45.977 -38.525)" d="m712.87 256.37a165.55 48.945 0 1 1 -331.1 0 165.55 48.945 0 1 1 331.1 0z" fill="#f9f9f9"/>
 <path transform="matrix(1.0278 0 0 1 -15.23 -12.668)" d="m712.87 256.37a165.55 48.945 0 1 1 -331.1 0 165.55 48.945 0 1 1 331.1 0z" fill="url(#f)"/>
 <path transform="matrix(1.0008 0 0 .95841 -.91495 -3.653)" d="m712.87 256.37a165.55 48.945 0 1 1 -331.1 0 165.55 48.945 0 1 1 331.1 0z" fill="#e9c6af"/>
 <path transform="matrix(1.0008 0 0 .95841 -.50778 -4.0602)" d="m712.87 256.37a165.55 48.945 0 1 1 -331.1 0 165.55 48.945 0 1 1 331.1 0z" fill="url(#l)"/>
 <path d="m508.6 157.04 81.479-0.57582c3.8758-16.312 6.0883-32.686-0.28791-49.377-26.493-18.295-53.355-18.845-80.616-0.28791-6.2868 17.182-4.994 33.823-0.57583 50.241z" fill="#fca"/>
 <path d="m509.75 157.62 81.479-0.57582c3.8758-16.312 6.0883-32.686-0.28791-49.377-26.493-18.295-53.355-18.845-80.616-0.28791-6.2868 17.182-4.994 33.823-0.57583 50.241z" fill="url(#r)"/>
 <path d="m414.6 241.4c85.131 33.038 173.38 51.039 275.25 3.455-5.8537-41.364-44.603-68.933-97.891-90.405l-83.495 0.57583c-45.316 13.983-76.182 43.218-93.86 86.374z" fill="#fca"/>
 <path d="m415.17 242.72c85.131 33.038 173.38 51.039 275.25 3.455-5.8537-41.364-44.603-68.933-97.891-90.405l-83.495 0.57583c-45.316 13.983-76.182 43.218-93.86 86.374z" fill="url(#k)"/>
 <g transform="matrix(1.0118 0 0 1 -9.3498 -.334)" fill="url(#j)">
  <path d="m508.6 157.04 81.479-0.57582c3.8758-16.312 6.0883-32.686-0.28791-49.377-26.493-18.295-53.355-18.845-80.616-0.28791-6.2868 17.182-4.994 33.823-0.57583 50.241z"/>
  <path d="m509.75 157.62 81.479-0.57582c3.8758-16.312 6.0883-32.686-0.28791-49.377-26.493-18.295-53.355-18.845-80.616-0.28791-6.2868 17.182-4.994 33.823-0.57583 50.241z"/>
  <path d="m414.6 241.4c85.131 33.038 173.38 51.039 275.25 3.455-5.8537-41.364-44.603-68.933-97.891-90.405l-83.495 0.57583c-45.316 13.983-76.182 43.218-93.86 86.374z"/>
  <path d="m415.17 242.72c85.131 33.038 173.38 51.039 275.25 3.455-5.8537-41.364-44.603-68.933-97.891-90.405l-83.495 0.57583c-45.316 13.983-76.182 43.218-93.86 86.374z"/>
 </g>
 <path d="m817.8 488.85-10.588 25.201-25.114 33.533c55.988-29.62 104.79-49.364 127.93-79.758 72.738-95.519 57.141-172.27 14.782-205.54-37.519-29.463-95.026-24.293-139.84 42.297l22.601 32.742 16.555 37.509c-0.015-49.547 10.758-75.134 34.52-86.047 29.039-13.336 56.354 6.2128 64.263 27.114 5.4608 14.432 14.543 27.314 4.4183 59.02-11.732 36.743-54.842 77.678-109.54 113.93z" fill="url(#i)"/>
 <path d="m746.27 268.46c-55.387 54.667-184.47 54.102-215.36 44.914-32.839 45.6-33.179 88.375 4.6066 127.83 47.516 41.262 107.83 54.093 180.92 38.517 3.339-0.71155 6.7047-1.4824 10.097-2.3125 31.531-7.7155 52.697 33.576 88.836 15.62 18.744-36.011 37.934-140.11-69.099-224.57z" fill="url(#h)"/>
 <path d="m274.43 426.5 37.966 78.339 15.387 67.611c115.49 72.839 236.84 112.49 378.4 37.718l78.799-63.956c-178.4 10.99-353.77 3.1864-510.55-119.71z" fill="url(#g)"/>
</svg>
